<?xml version="1.0" encoding="UTF-8" standalone="no"?>
<!-- Generator: Adobe Illustrator 17.1.0, SVG Export Plug-In . SVG Version: 6.00 Build 0)  -->

<svg
   xmlns:dc="http://purl.org/dc/elements/1.1/"
   xmlns:cc="http://creativecommons.org/ns#"
   xmlns:rdf="http://www.w3.org/1999/02/22-rdf-syntax-ns#"
   xmlns:svg="http://www.w3.org/2000/svg"
   xmlns="http://www.w3.org/2000/svg"
   xmlns:sodipodi="http://sodipodi.sourceforge.net/DTD/sodipodi-0.dtd"
   xmlns:inkscape="http://www.inkscape.org/namespaces/inkscape"
   version="1.1"
   id="Capa_1"
   x="0px"
   y="0px"
   viewBox="0 0 315.48433 316.72806"
   xml:space="preserve"
   inkscape:version="0.48.4 r9939"
   width="100%"
   height="100%"
   sodipodi:docname="icon.svg"><metadata
     id="metadata43"><rdf:RDF><cc:Work
         rdf:about=""><dc:format>image/svg+xml</dc:format><dc:type
           rdf:resource="http://purl.org/dc/dcmitype/StillImage" /><dc:title></dc:title></cc:Work></rdf:RDF></metadata><defs
     id="defs41" /><sodipodi:namedview
     pagecolor="#ffffff"
     bordercolor="#666666"
     borderopacity="1"
     objecttolerance="10"
     gridtolerance="10"
     guidetolerance="10"
     inkscape:pageopacity="0"
     inkscape:pageshadow="2"
     inkscape:window-width="1600"
     inkscape:window-height="793"
     id="namedview39"
     showgrid="false"
     showguides="true"
     inkscape:guide-bbox="true"
     fit-margin-top="1"
     fit-margin-left="1"
     fit-margin-right="1"
     fit-margin-bottom="1"
     units="mm"
     inkscape:zoom="1.5761336"
     inkscape:cx="83.925538"
     inkscape:cy="166.29786"
     inkscape:window-x="0"
     inkscape:window-y="30"
     inkscape:window-maximized="1"
     inkscape:current-layer="Capa_1" /><g
     id="g3062"
     style="fill:#ffa61c;fill-opacity:1"
     transform="translate(-14.173225,-14.173241)"><path
       sodipodi:nodetypes="ccccccccccccccccccccccsc"
       inkscape:connector-curvature="0"
       id="path3050"
       d="m 213.23617,312.73598 c 15.82769,10.7847 35.76837,17.1165 54.9375,13.6875 9.01772,-3.4568 9.37487,-18.0128 0.78125,-22.2813 -6.91465,-6.2085 -14.29632,-14.1022 -17.4375,-22.4687 43.80165,-23.6397 74.94082,-71.05093 74.59375,-121.46878 C 326.45413,111.94851 298.21839,66.028048 257.26742,41.548458 231.17414,25.545238 200.41131,17.259907 169.67367,17.735957 109.85686,17.696157 50.173079,53.889848 27.441226,109.84482 8.4139191,155.3514 17.91301,211.01141 50.642426,247.82968 c 29.067776,33.8373 73.511444,54.3024 118.281244,53.6875 2.45633,-0.5928 4.37465,-1.9922 5.74082,-3.8292 4.54907,-6.1171 2.97614,-17.0875 -5.24082,-19.2958 -18.62807,-1.7053 -37.52347,-4.2782 -54.72865,-12.2445 C 77.390341,250.05968 47.018553,215.36271 41.657255,174.496 35.55009,133.03808 56.606994,90.579966 90.73618,67.235958 c 51.13824,-36.73295 127.56608,-33.16797 174.1215,9.50912 28.56864,25.433742 44.21233,65.893942 36.12849,103.897122 -7.25433,37.33168 -35.07884,68.81868 -69.34375,84.21878 -6.53532,3.2036 -7.60414,11.2859 -5.125,17.5312 1.44885,5.0894 3.77371,9.8206 6.34375,14.4375 -10.11122,-4.8026 -17.30948,-13.7835 -25.46875,-21 -9.37711,-4.896 -20.5688,7.1218 -15.125,16.1875 0.77074,1.4286 1.6445,2.7783 2.6001,4.0632 4.9164,6.6109 11.99942,11.5107 18.36865,16.6556 z"
       style="fill:#ffa61c;fill-opacity:1" /><path
       sodipodi:nodetypes="cccsssccccsssssscssscssssssscscccccscccssssss"
       inkscape:connector-curvature="0"
       id="path3031"
       d="m 217.51742,291.11098 c 12.93765,11.5251 25.5625,14.0312 25.5625,14.0312 -8.50854,-11.6734 -11.0625,-19.1562 -11.0625,-19.1562 52.37918,-21.3982 88.9375,-69.71099 88.9375,-125.90628 0,-76.037834 -66.91718,-137.687492 -149.4375,-137.687492 -82.52033,0 -149.406244,61.649658 -149.406244,137.687492 0,76.03788 64.209274,141.47458 146.729604,141.47458 4.50393,0 14.86488,-0.038 27.02541,-0.038 5.10078,0 5.25672,1.6498 6.77508,2.5403 7.66685,5.6802 9.0369,-11.1062 14.87615,-12.946 z M 170.57992,97.985956 c 1.84644,-0.0269 3.69903,0.0264 5.5625,0.15625 33.991,2.375694 60.625,31.796304 60.625,66.999994 l 0,0.5 c 0,15.17776 -12.22925,27.53125 -27.28125,27.53125 l -1.96875,0 c -8.067,0 -15.34175,-3.55987 -20.34375,-9.1875 -5.317,5.64579 -12.812,9.1875 -21.125,9.1875 -16.082,0 -29.15625,-13.18988 -29.15625,-29.40625 0,-16.21537 13.07425,-29.40625 29.15625,-29.40625 5.467,0 10.59075,1.50629 14.96875,4.15625 1.232,-2.47552 3.7535,-4.15625 6.6875,-4.15625 4.142,0 7.5,3.38488 7.5,7.5625 l 0,23.71875 c 0,6.83766 5.5315,12.40625 12.3125,12.40625 l 1.96875,0 c 6.781,0 12.28125,-5.56859 12.28125,-12.40625 l 0,-0.5 c 0,-27.28911 -20.49625,-50.10933 -46.65625,-51.93749 -15.316,-1.07592 -30.07375,4.80923 -40.46875,16.12499 -10.393,11.31375 -15.0625,26.68909 -12.8125,42.15625 3.20501,22.0376 21.502,39.92767 43.5,42.5625 11.766,1.40868 23.18525,-1.1494 33.03125,-7.4375 3.498,-2.23553 8.12775,-1.18449 10.34375,2.34375 2.216,3.52923 1.1875,8.20198 -2.3125,10.4375 -10.524,6.7217 -22.41425,10.15625 -34.78125,10.15625 -2.664,0 -5.33125,-0.14507 -8.03125,-0.46875 -29.067,-3.48084 -52.35574,-26.2668 -56.59374,-55.40625 -2.912,-20.01888 3.16324,-39.93729 16.65624,-54.625 12.22984,-13.31348 29.0886,-20.802314 46.9375,-21.062494 z m -4.53125,51.499994 c -7.811,0 -14.15625,6.40498 -14.15625,14.28125 0,7.87626 6.34525,14.28125 14.15625,14.28125 7.811,0 14.15625,-6.406 14.15625,-14.28125 0,-7.87526 -6.34525,-14.28125 -14.15625,-14.28125 z"
       style="fill:#ffa61c;fill-opacity:1;fill-rule:nonzero;stroke:none" /></g><path
     inkscape:connector-curvature="0"
     id="path7"
     d="m 307.85357,145.70887 c 0,-76.180055 -67.37125,-138.1571132 -150.18163,-138.1571132 -82.810365,0 -150.1826234,61.9781382 -150.1826234,138.1571132 0,36.14545 15.0489554,70.31824 42.3745844,96.22007 26.908384,25.5075 62.963079,40.3587 101.525269,41.8182 4.12432,0.1275 7.63581,-3.3393 7.78225,-7.8118 0.14544,-4.4725 -3.10227,-8.2245 -7.25367,-8.3822 -35.09584,-1.3277 -67.808545,-14.7475 -92.113153,-37.7886 C 35.769799,206.98263 22.53426,177.13115 22.53426,145.70887 c 0,-67.244705 60.622095,-121.951183 135.13668,-121.951183 74.51459,0 135.13669,54.707558 135.13669,121.952263 0,45.77654 -28.06985,87.30629 -73.25483,108.38239 -3.41721,1.5945 -5.23765,5.6414 -4.28079,9.5176 2.66596,10.8032 8.04904,20.0476 13.53443,27.2403 -15.90551,-4.3655 -27.35271,-14.4882 -34.82102,-23.524 -2.76225,-3.3414 -7.51846,-3.6385 -10.62073,-0.6633 -3.10327,2.9752 -3.37909,8.097 -0.61584,11.4395 9.8083,11.8663 30.68266,31.149 62.70131,31.149 1.49346,0 3.012,-0.041 4.5536,-0.1275 3.21561,-0.1815 5.96783,-2.5463 6.84545,-5.8834 0.87762,-3.3371 -0.31394,-6.9065 -2.96385,-8.876 -0.16851,-0.1253 -15.17835,-11.4417 -22.00975,-28.5324 47.04654,-24.5633 75.97796,-69.99951 75.97796,-120.12327 z"
     style="fill:#ffffff" /><g
     id="g9"
     transform="translate(7.9379506,8.2189668)" /><g
     id="g11"
     transform="translate(7.9379506,8.2189668)" /><g
     id="g13"
     transform="translate(7.9379506,8.2189668)" /><g
     id="g15"
     transform="translate(7.9379506,8.2189668)" /><g
     id="g17"
     transform="translate(7.9379506,8.2189668)" /><g
     id="g19"
     transform="translate(7.9379506,8.2189668)" /><g
     id="g21"
     transform="translate(7.9379506,8.2189668)" /><g
     id="g23"
     transform="translate(7.9379506,8.2189668)" /><g
     id="g25"
     transform="translate(7.9379506,8.2189668)" /><g
     id="g27"
     transform="translate(7.9379506,8.2189668)" /><g
     id="g29"
     transform="translate(7.9379506,8.2189668)" /><g
     id="g31"
     transform="translate(7.9379506,8.2189668)" /><g
     id="g33"
     transform="translate(7.9379506,8.2189668)" /><g
     id="g35"
     transform="translate(7.9379506,8.2189668)" /><g
     id="g37"
     transform="translate(7.9379506,8.2189668)" /></svg>