<?xml version="1.0" encoding="UTF-8" standalone="no"?>
<!-- Generator: Adobe Illustrator 17.1.0, SVG Export Plug-In . SVG Version: 6.00 Build 0)  -->

<svg
   xmlns:dc="http://purl.org/dc/elements/1.1/"
   xmlns:cc="http://creativecommons.org/ns#"
   xmlns:rdf="http://www.w3.org/1999/02/22-rdf-syntax-ns#"
   xmlns:svg="http://www.w3.org/2000/svg"
   xmlns="http://www.w3.org/2000/svg"
   xmlns:sodipodi="http://sodipodi.sourceforge.net/DTD/sodipodi-0.dtd"
   xmlns:inkscape="http://www.inkscape.org/namespaces/inkscape"
   version="1.1"
   id="Capa_1"
   x="0px"
   y="0px"
   viewBox="0 0 155.90551 155.90551"
   xml:space="preserve"
   inkscape:version="0.48.4 r9939"
   width="100%"
   height="100%"
   sodipodi:docname="icon_friends.svg"
   inkscape:export-filename="/home/mahieke/work/meetat-starhack/meetat-assets/logos/logo_colored.png"
   inkscape:export-xdpi="37.43858"
   inkscape:export-ydpi="37.43858"><metadata
     id="metadata43"><rdf:RDF><cc:Work
         rdf:about=""><dc:format>image/svg+xml</dc:format><dc:type
           rdf:resource="http://purl.org/dc/dcmitype/StillImage" /><dc:title></dc:title></cc:Work></rdf:RDF></metadata><defs
     id="defs41" /><sodipodi:namedview
     pagecolor="#ffffff"
     bordercolor="#666666"
     borderopacity="1"
     objecttolerance="10"
     gridtolerance="10"
     guidetolerance="10"
     inkscape:pageopacity="0"
     inkscape:pageshadow="2"
     inkscape:window-width="1600"
     inkscape:window-height="793"
     id="namedview39"
     showgrid="false"
     showguides="true"
     inkscape:guide-bbox="true"
     fit-margin-top="3"
     fit-margin-left="3"
     fit-margin-right="3"
     fit-margin-bottom="3"
     units="mm"
     inkscape:zoom="2"
     inkscape:cx="138.74104"
     inkscape:cy="52.588189"
     inkscape:window-x="0"
     inkscape:window-y="30"
     inkscape:window-maximized="1"
     inkscape:current-layer="Capa_1" /><path
     sodipodi:type="arc"
     style="fill:#ff7400;fill-opacity:1;fill-rule:nonzero;stroke:#ff7400;stroke-width:0.80000001;stroke-linecap:round;stroke-linejoin:round;stroke-miterlimit:4;stroke-opacity:1;stroke-dasharray:none"
     id="path3261"
     sodipodi:cx="-52.977737"
     sodipodi:cy="58.198071"
     sodipodi:rx="22.206238"
     sodipodi:ry="22.206238"
     d="m -30.7715,58.198071 a 22.206238,22.206238 0 1 1 -44.412475,0 22.206238,22.206238 0 1 1 44.412475,0 z"
     transform="matrix(1.1990601,0,0,1.1990601,137.04574,-0.08491432)" /><path
     style="font-size:medium;font-style:normal;font-variant:normal;font-weight:normal;font-stretch:normal;text-indent:0;text-align:start;text-decoration:none;line-height:normal;letter-spacing:normal;word-spacing:normal;text-transform:none;direction:ltr;block-progression:tb;writing-mode:lr-tb;text-anchor:start;baseline-shift:baseline;color:#000000;fill:#ff7400;fill-opacity:1;stroke:none;stroke-width:4.57562447;marker:none;visibility:visible;display:inline;overflow:visible;enable-background:accumulate;font-family:Sans;-inkscape-font-specification:Sans"
     d="m 52.566663,40.085098 c -16.260233,0 -29.375,14.165961 -29.375,31.46875 l 3.1875,0 c 0,-15.699761 11.784231,-28.28125 26.1875,-28.28125 2.305236,0 4.52375,0.331799 6.65625,0.9375 1.374582,-0.711029 2.824557,-1.317168 4.3125,-1.8125 -3.390391,-1.469279 -7.079758,-2.3125 -10.96875,-2.3125 z"
     id="path3134"
     inkscape:connector-curvature="0" /><path
     style="font-size:60.8427887px;font-style:normal;font-variant:normal;font-weight:normal;font-stretch:normal;text-align:start;line-height:125%;letter-spacing:0px;word-spacing:0px;writing-mode:lr-tb;text-anchor:start;fill:#ff7400;fill-opacity:1;stroke:none;font-family:Raleway;-inkscape-font-specification:Raleway"
     d="m 107.22291,19.053848 c -2.92047,3.6e-5 -5.75112,0.561116 -8.468747,1.65625 -2.717659,1.054642 -5.109546,2.575001 -7.21875,4.5625 -2.068663,1.98756 -3.742588,4.388758 -5,7.1875 -1.216859,2.758227 -1.812503,5.83351 -1.8125,9.28125 0,0.284407 0.02274,0.562991 0.03125,0.84375 0.760608,0.32171 1.522841,0.681599 2.25,1.0625 -0.04956,-0.620798 -0.09375,-1.269592 -0.09375,-1.90625 -5e-6,-3.00156 0.507886,-5.735145 1.5625,-8.25 1.095163,-2.51481 2.580957,-4.705939 4.40625,-6.53125 1.825271,-1.825253 3.941273,-3.235922 6.375,-4.25 2.474257,-1.054574 5.107457,-1.593715 7.906247,-1.59375 2.8393,3.5e-5 5.47251,0.561114 7.90625,1.65625 2.43367,1.095202 4.55899,2.593623 6.34375,4.5 1.82524,1.865873 3.23591,4.069628 4.25,6.625 1.01401,2.555417 1.53121,5.298313 1.53125,8.21875 -4e-5,1.095183 -0.10974,2.383535 -0.3125,3.84375 -0.16229,1.419674 -0.48206,2.74259 -0.96875,4 -0.48679,1.257422 -1.14824,2.326393 -2,3.21875 -0.81128,0.851801 -1.86762,1.281251 -3.125,1.28125 -1.37914,10e-7 -2.22873,-0.551766 -2.59375,-1.6875 -0.32453,-1.135728 -0.50004,-2.590273 -0.5,-4.375 l 0,-7.875 c -4e-5,-1.46021 -0.10972,-2.914754 -0.3125,-4.375 -0.16228,-1.500767 -0.59174,-2.823683 -1.28125,-4 -0.68959,-1.21683 -1.69274,-2.20736 -3.03125,-2.9375 -1.29801,-0.770648 -3.07231,-1.156222 -5.34375,-1.15625 -1.86587,2.8e-5 -3.64948,0.307162 -5.3125,0.875 -1.62249,0.567893 -3.164788,1.339041 -4.624997,2.3125 l 1.09375,2.34375 c 1.176277,-0.892337 2.486567,-1.575734 3.906247,-2.0625 1.46021,-0.527279 3.0025,-0.781225 4.625,-0.78125 1.50076,2.5e-5 2.74524,0.232033 3.71875,0.71875 0.97346,0.486767 1.7446,1.179475 2.3125,2.03125 0.56784,0.851821 0.9534,1.876915 1.15625,3.09375 0.24333,1.176312 0.34372,2.47729 0.34375,3.9375 -0.68958,-0.243355 -1.69274,-0.519239 -3.03125,-0.84375 -1.33857,-0.36504 -2.9028,-0.531233 -4.6875,-0.53125 -1.33856,1.7e-5 -2.66148,0.122334 -4,0.40625 -1.33856,0.243388 -2.5611,0.694776 -3.656247,1.34375 -1.054625,0.608443 -1.935464,1.445405 -2.625,2.5 -0.649004,1.05462 -0.968764,2.36491 -0.96875,3.90625 -1.4e-5,2.393155 0.793072,4.333654 2.375,5.875 1.622456,1.50079 3.870087,2.250001 6.749997,2.25 2.14976,10e-7 4.1215,-0.3982 5.90625,-1.25 1.78469,-0.851797 3.23924,-1.886202 4.375,-3.0625 0.0811,0.730118 0.21272,1.435451 0.375,2.125 0.16221,0.648992 0.41615,1.253947 0.78125,1.78125 0.36502,0.527304 0.86029,0.934816 1.46875,1.21875 0.64896,0.324494 1.45466,0.468749 2.46875,0.46875 1.37906,-1e-6 2.55772,-0.275885 3.53125,-0.84375 0.97344,-0.527304 1.78847,-1.232638 2.4375,-2.125 0.64894,-0.892358 1.16615,-1.873576 1.53125,-2.96875 0.40557,-1.095165 0.7034,-2.195385 0.90625,-3.25 0.20276,-1.054599 0.3344,-2.035816 0.375,-2.96875 0.0811,-0.973472 0.12496,-1.744621 0.125,-2.3125 -4e-5,-3.447741 -0.605,-6.598149 -1.78125,-9.4375 -1.17634,-2.839304 -2.78445,-5.253129 -4.8125,-7.28125 -2.02813,-2.068622 -4.3542,-3.654796 -7.03125,-4.75 -2.67711,-1.135696 -5.5297,-1.718714 -8.53125,-1.71875 z m -0.125,22.46875 c 1.94694,1.5e-5 3.59893,0.188146 4.9375,0.59375 1.37907,0.405632 2.31641,0.63764 2.84375,0.71875 l 0,2.4375 c -3e-5,1.135742 -0.23204,2.248588 -0.71875,3.34375 -0.44621,1.095176 -1.51518,2.063768 -3.21875,2.875 -0.7707,0.365061 -1.67348,0.68482 -2.6875,0.96875 -0.97351,0.243374 -1.95473,0.375003 -2.96875,0.375 -1.90643,3e-6 -3.47066,-0.5172 -4.6875,-1.53125 -1.21687,-1.054603 -1.843765,-2.421395 -1.843747,-4.125 -1.8e-5,-1.09516 0.241302,-1.997937 0.6875,-2.6875 0.486724,-0.730101 1.104307,-1.303807 1.874997,-1.75 0.77066,-0.446167 1.6515,-0.775238 2.625,-0.9375 1.01403,-0.202795 2.06106,-0.281235 3.15625,-0.28125 z m 9.0625,18.71875 c -1.50082,0.730108 -2.99924,1.313125 -4.5,1.71875 -1.50082,0.405612 -3.13086,0.593743 -4.875,0.59375 -1.68253,-4e-6 -3.27242,-0.177938 -4.8125,-0.5625 0.21402,0.742212 0.40524,1.485439 0.5625,2.25 1.38027,0.263359 2.78507,0.374996 4.25,0.375 1.70357,-8e-6 3.42138,-0.188141 5.125,-0.59375 1.70357,-0.405627 3.39943,-1.00127 5.0625,-1.8125 l -0.8125,-1.96875 z"
     id="path3117"
     inkscape:connector-curvature="0" /><path
     style="font-size:medium;font-style:normal;font-variant:normal;font-weight:normal;font-stretch:normal;text-indent:0;text-align:start;text-decoration:none;line-height:normal;letter-spacing:normal;word-spacing:normal;text-transform:none;direction:ltr;block-progression:tb;writing-mode:lr-tb;text-anchor:start;baseline-shift:baseline;color:#000000;fill:#ff7400;fill-opacity:1;stroke:none;stroke-width:4.57562447;marker:none;visibility:visible;display:inline;overflow:visible;enable-background:accumulate;font-family:Sans;-inkscape-font-specification:Sans"
     d="m 106.56666,69.022598 c -1.26627,0 -2.51406,0.06515 -3.75,0.1875 0.023,0.482337 0.0312,0.94948 0.0312,1.4375 0,0.997511 -0.0615,1.996119 -0.15625,2.96875 1.27491,-0.147924 2.56459,-0.21875 3.875,-0.21875 19.77265,0 35.90625,17.26014 35.90625,38.812502 l 4.375,0 c 0,-23.752972 -17.9594,-43.187502 -40.28125,-43.187502 z"
     id="path3109"
     inkscape:connector-curvature="0"
     sodipodi:nodetypes="scscsccs" /><g
     id="g9"
     transform="translate(-3.3281481,-85.885462)" /><g
     id="g11"
     transform="translate(-3.3281481,-85.885462)" /><g
     id="g13"
     transform="translate(-3.3281481,-85.885462)" /><g
     id="g15"
     transform="translate(-3.3281481,-85.885462)" /><g
     id="g17"
     transform="translate(-3.3281481,-85.885462)" /><g
     id="g19"
     transform="translate(-3.3281481,-85.885462)" /><g
     id="g21"
     transform="translate(-3.3281481,-85.885462)" /><g
     id="g23"
     transform="translate(-3.3281481,-85.885462)" /><g
     id="g25"
     transform="translate(-3.3281481,-85.885462)" /><g
     id="g27"
     transform="translate(-3.3281481,-85.885462)" /><g
     id="g29"
     transform="translate(-3.3281481,-85.885462)" /><g
     id="g31"
     transform="translate(-3.3281481,-85.885462)" /><g
     id="g33"
     transform="translate(-3.3281481,-85.885462)" /><g
     id="g35"
     transform="translate(-3.3281481,-85.885462)" /><g
     id="g37"
     transform="translate(-3.3281481,-85.885462)" /><text
     xml:space="preserve"
     style="font-size:12px;font-style:normal;font-variant:normal;font-weight:normal;font-stretch:normal;text-align:start;line-height:125%;letter-spacing:0px;word-spacing:0px;writing-mode:lr-tb;text-anchor:start;fill:#000000;fill-opacity:1;stroke:none;font-family:Abyssinica SIL;-inkscape-font-specification:Abyssinica SIL"
     x="-138.15891"
     y="169.3287"
     id="text4363"
     sodipodi:linespacing="125%"><tspan
       sodipodi:role="line"
       id="tspan4365"
       x="-138.15891"
       y="169.3287"
       style="font-style:normal;font-variant:normal;font-weight:normal;font-stretch:normal;font-family:Abyssinica SIL;-inkscape-font-specification:Abyssinica SIL" /></text>
<text
     xml:space="preserve"
     style="font-size:12px;font-style:italic;font-variant:normal;font-weight:bold;font-stretch:normal;text-align:start;line-height:125%;letter-spacing:0px;word-spacing:0px;writing-mode:lr-tb;text-anchor:start;fill:#000000;fill-opacity:1;stroke:none;font-family:WenQuanYi Micro Hei Mono;-inkscape-font-specification:WenQuanYi Micro Hei Mono Bold Italic"
     x="-147.59656"
     y="168.21838"
     id="text4371"
     sodipodi:linespacing="125%"><tspan
       sodipodi:role="line"
       id="tspan4373"
       x="-147.59656"
       y="168.21838" /></text>
<text
     sodipodi:linespacing="125%"
     id="text4957"
     y="84.166374"
     x="46.605988"
     style="font-size:63.6072464px;font-style:normal;font-variant:normal;font-stretch:normal;text-align:start;line-height:125%;letter-spacing:0px;word-spacing:0px;writing-mode:lr-tb;text-anchor:start;fill:#ffffff;fill-opacity:1;stroke:none;font-family:Roboto;-inkscape-font-specification:Roboto Semi-Light"
     xml:space="preserve"><tspan
       style="font-size:63.6072464px;font-style:normal;font-variant:normal;font-weight:normal;font-stretch:normal;text-align:start;line-height:125%;writing-mode:lr-tb;text-anchor:start;fill:#ffffff;fill-opacity:1;font-family:Raleway;-inkscape-font-specification:Raleway"
       y="84.166374"
       x="46.605988"
       id="tspan4959"
       sodipodi:role="line">@</tspan></text>
<g
     id="g4961"
     transform="matrix(1.1274566,0,0,1.1274566,17.209843,-1011.6804)"><path
       inkscape:connector-curvature="0"
       id="path4963"
       d="M 49.09375,987.4375 C 25.789168,987.4375 7,1007.7324 7,1032.5312 l 4.59375,0 c 0,-22.5013 16.856866,-40.5312 37.5,-40.5312 20.643235,0 37.5,18.0299 37.5,40.5312 l 4.5625,0 c 0,-24.7988 -18.757829,-45.0937 -42.0625,-45.0937 z"
       style="font-size:medium;font-style:normal;font-variant:normal;font-weight:normal;font-stretch:normal;text-indent:0;text-align:start;text-decoration:none;line-height:normal;letter-spacing:normal;word-spacing:normal;text-transform:none;direction:ltr;block-progression:tb;writing-mode:lr-tb;text-anchor:start;baseline-shift:baseline;color:#000000;fill:#ff7400;fill-opacity:1;stroke:none;stroke-width:4.57562447;marker:none;visibility:visible;display:inline;overflow:visible;enable-background:accumulate;font-family:Sans;-inkscape-font-specification:Sans" /></g><text
     xml:space="preserve"
     style="font-size:44.32077408px;font-style:normal;font-variant:normal;font-stretch:normal;text-align:start;line-height:125%;letter-spacing:0px;word-spacing:0px;writing-mode:lr-tb;text-anchor:start;fill:#000000;fill-opacity:1;stroke:none;font-family:Roboto;-inkscape-font-specification:Roboto Semi-Light"
     x="34.424744"
     y="30.431746"
     id="text3128"
     sodipodi:linespacing="125%"><tspan
       sodipodi:role="line"
       id="tspan3130"
       x="34.424744"
       y="30.431746"
       style="font-size:44.32077408px;font-style:normal;font-variant:normal;font-weight:normal;font-stretch:normal;text-align:start;line-height:125%;writing-mode:lr-tb;text-anchor:start;fill:#ff7400;fill-opacity:1;font-family:Raleway;-inkscape-font-specification:Raleway">@</tspan></text>
</svg>