<?xml version="1.0" encoding="UTF-8" standalone="no"?>
<!-- Generator: Adobe Illustrator 17.1.0, SVG Export Plug-In . SVG Version: 6.00 Build 0)  -->

<svg
   xmlns:dc="http://purl.org/dc/elements/1.1/"
   xmlns:cc="http://creativecommons.org/ns#"
   xmlns:rdf="http://www.w3.org/1999/02/22-rdf-syntax-ns#"
   xmlns:svg="http://www.w3.org/2000/svg"
   xmlns="http://www.w3.org/2000/svg"
   xmlns:sodipodi="http://sodipodi.sourceforge.net/DTD/sodipodi-0.dtd"
   xmlns:inkscape="http://www.inkscape.org/namespaces/inkscape"
   version="1.1"
   id="Capa_1"
   x="0px"
   y="0px"
   viewBox="0 0 315.48433 316.72806"
   xml:space="preserve"
   inkscape:version="0.48.4 r9939"
   width="100%"
   height="100%"
   sodipodi:docname="icon_alternative.svg"><metadata
     id="metadata43"><rdf:RDF><cc:Work
         rdf:about=""><dc:format>image/svg+xml</dc:format><dc:type
           rdf:resource="http://purl.org/dc/dcmitype/StillImage" /><dc:title></dc:title></cc:Work></rdf:RDF></metadata><defs
     id="defs41" /><sodipodi:namedview
     pagecolor="#ffffff"
     bordercolor="#666666"
     borderopacity="1"
     objecttolerance="10"
     gridtolerance="10"
     guidetolerance="10"
     inkscape:pageopacity="0"
     inkscape:pageshadow="2"
     inkscape:window-width="1600"
     inkscape:window-height="793"
     id="namedview39"
     showgrid="false"
     showguides="true"
     inkscape:guide-bbox="true"
     fit-margin-top="1"
     fit-margin-left="1"
     fit-margin-right="1"
     fit-margin-bottom="1"
     units="mm"
     inkscape:zoom="1"
     inkscape:cx="284.22889"
     inkscape:cy="49.383706"
     inkscape:window-x="0"
     inkscape:window-y="30"
     inkscape:window-maximized="1"
     inkscape:current-layer="g6052"><sodipodi:guide
       orientation="1,0"
       position="-468.23442,249.97881"
       id="guide5729" /></sodipodi:namedview><g
     id="g9"
     transform="translate(7.9379506,8.2189668)" /><g
     id="g11"
     transform="translate(7.9379506,8.2189668)" /><g
     id="g13"
     transform="translate(7.9379506,8.2189668)" /><g
     id="g15"
     transform="translate(7.9379506,8.2189668)" /><g
     id="g17"
     transform="translate(7.9379506,8.2189668)" /><g
     id="g19"
     transform="translate(7.9379506,8.2189668)" /><g
     id="g21"
     transform="translate(7.9379506,8.2189668)" /><g
     id="g23"
     transform="translate(7.9379506,8.2189668)" /><g
     id="g25"
     transform="translate(7.9379506,8.2189668)" /><g
     id="g27"
     transform="translate(7.9379506,8.2189668)" /><g
     id="g29"
     transform="translate(7.9379506,8.2189668)" /><g
     id="g31"
     transform="translate(7.9379506,8.2189668)" /><g
     id="g33"
     transform="translate(7.9379506,8.2189668)" /><g
     id="g35"
     transform="translate(7.9379506,8.2189668)" /><g
     id="g37"
     transform="translate(7.9379506,8.2189668)" /><g
     style="font-size:163.59852599999999256px;font-style:normal;font-variant:normal;font-stretch:normal;text-align:start;line-height:125%;letter-spacing:0px;word-spacing:0px;writing-mode:lr-tb;text-anchor:start;fill:#ffffff;fill-opacity:1;stroke:none;font-family:Roboto;-inkscape-font-specification:Roboto Semi-Light;stroke-width:2.70000002;stroke-miterlimit:4;stroke-dasharray:none"
     id="text4957" /><path
     style="fill:#ff7400;fill-opacity:1;fill-rule:nonzero;stroke:none"
     d="M 24.90625,4.1875 C 12.27721,4.4357316 2.4273999,16.825455 3.9999999,29.15625 c 0.0631,88.12417 -0.12581,176.25487 0.0937,264.375 0.98339,12.55937 13.6777701,21.49858 25.9062501,19.71875 87.79006,-0.0842 175.59283,0.16782 263.375,-0.125 12.57925,-0.9355 21.45873,-13.68986 19.6875,-25.875 -0.0631,-87.79084 0.12581,-175.58821 -0.0937,-263.375 C 311.98839,11.314172 299.28384,2.3906314 287.0625,4.15625 199.67725,4.177162 112.29071,4.1144782 24.90625,4.1875 z"
     id="rect5709"
     inkscape:connector-curvature="0" /><g
     id="g6075"
     transform="translate(-552.01847,-2.6515567)"><path
       style="font-size:67.7912674px;font-style:normal;font-variant:normal;font-weight:normal;font-stretch:normal;text-align:start;line-height:125%;letter-spacing:0px;word-spacing:0px;writing-mode:lr-tb;text-anchor:start;fill:#ffffff;fill-opacity:1;stroke:none;font-family:Raleway;-inkscape-font-specification:Raleway"
       d="m 789.27724,28.375 c -20.41607,0.925113 -38.51982,18.767234 -38.9375,39.28125 0.81156,3.127448 5.58329,4.447838 7.78125,7 C 756.21154,57.9308 767.18621,40.693941 783.71474,37 c 18.76499,-5.507573 39.07897,8.867499 41.4375,27.96875 0.80198,8.76173 1.21308,20.021936 -6.46875,25.78125 -3.05966,1.572744 -6.37993,-0.624366 -5.65625,-4.25 -1.53441,-11.95906 2.9141,-26.566078 -5.25,-36.625 -8.83364,-8.955999 -23.88542,-6.146137 -33.375,0.3125 -2.36669,2.047808 2.08855,12.673096 5.71875,6.5 6.40188,-4.108957 18.38079,-6.539049 22.3125,1.9375 0.66849,2.492691 3.23366,8.814357 -1.40625,6.34375 -10.39549,-2.363224 -25.04027,-1.323957 -29.90625,9.75 -3.63829,9.388759 2.86226,21.334603 13.40625,21.90625 7.32549,1.555362 15.36797,-1.758679 20.8125,-5.1875 2.17337,10.16673 16.87005,9.65546 22.0625,2.34375 7.70179,-11.108183 7.57574,-26.465878 3.21875,-38.875 C 824.65198,38.131334 807.0847,26.858115 789.27724,28.375 z m 2.0625,43.78125 c 4.36353,-0.209434 8.40256,0.809163 12.5,2 1.02033,5.694376 -2.13961,11.603351 -7.96875,12.75 -5.96243,2.893483 -16.61707,1.681659 -16.6875,-6.59375 -0.40004,-6.534258 7.15258,-8.10207 12.15625,-8.15625 z m 15.9375,29.46875 c -9.47395,5.04822 -21.0202,5.14053 -30.75,0.65625 1.66253,3.84073 0.64121,10.31681 6.28125,10.0625 9.9101,2.09443 20.3954,0.35023 29.28125,-4.4375 -1.63359,-1.52129 -1.54971,-9.462718 -4.8125,-6.28125 z"
       id="path5711"
       inkscape:connector-curvature="0" /><path
       style="font-size:163.598526px;font-style:normal;font-variant:normal;font-stretch:normal;text-align:start;line-height:125%;letter-spacing:0px;word-spacing:0px;writing-mode:lr-tb;text-anchor:start;fill:#ffffff;fill-opacity:1;stroke:none;font-family:Roboto;-inkscape-font-specification:Roboto Semi-Light"
       d="m 708.37099,63.6875 c -26.81568,0.261667 -52.32312,19.333374 -58.88642,45.62148 -7.05435,26.21186 2.84178,56.61283 26.13642,71.25352 18.55969,12.28535 43.5661,12.53683 63,2.09375 -1.94045,-4.59712 -2.79835,-11.75165 -8.5,-6.6875 -22.21526,10.74851 -51.54383,2.46593 -64.3125,-18.96875 -14.60811,-22.58613 -10.43617,-56.26976 11.53125,-72.75 20.21446,-16.404323 52.75437,-14.365574 69.91334,5.594401 15.15618,16.157739 18.32381,41.700849 9.43041,61.593099 -2.16912,5.38797 -9.8805,10.34247 -14.8125,5.59375 -3.73345,-11.00322 -0.96114,-23.18687 -1.86502,-34.65602 0.15642,-11.57101 -2.05654,-25.383214 -13.41623,-31.15648 -14.41707,-6.972009 -32.08062,-2.560227 -44.59375,6.4375 2.50457,3.03916 3.05844,13.43261 7.84375,7.84375 8.99999,-5.932081 21.90949,-9.348991 31.65625,-3.46875 5.93372,4.22345 6.6488,11.90098 7.09375,18.65625 -14.25749,-4.47352 -31.99244,-5.00377 -44.125,4.71875 -12.44868,10.68526 -7.17212,34.20965 8.71875,38.46875 12.77985,3.99013 27.10273,0.53349 37.21875,-7.96875 0.49375,8.25179 8.48179,14.28105 16.59375,12.96875 11.81072,-0.12976 19.83622,-11.25955 22,-21.8125 7.08984,-25.4958 -0.82402,-55.520134 -22.53125,-71.40625 C 735.57762,67.645819 722.00251,63.238258 708.37099,63.6875 z m 0.15625,64.34375 c 6.8875,-0.38979 13.46931,1.36502 19.96875,3.21875 0.91698,7.76768 -1.24242,17.07283 -9.5,19.78125 -8.88333,4.44121 -23.49659,6.13169 -28.8125,-4.4375 -3.37107,-6.9818 0.91815,-15.76985 8.65625,-17.1875 3.15088,-0.8468 6.42421,-1.29428 9.6875,-1.375 z"
       id="path5713"
       inkscape:connector-curvature="0" /><path
       style="font-size:medium;font-style:normal;font-variant:normal;font-weight:normal;font-stretch:normal;text-indent:0;text-align:start;text-decoration:none;line-height:normal;letter-spacing:normal;word-spacing:normal;text-transform:none;direction:ltr;block-progression:tb;writing-mode:lr-tb;text-anchor:start;baseline-shift:baseline;color:#000000;fill:#ffffff;fill-opacity:1;stroke:none;stroke-width:4.57562447;marker:none;visibility:visible;display:inline;overflow:visible;enable-background:accumulate;font-family:Sans;-inkscape-font-specification:Sans"
       d="m 705.93349,206.21875 c -37.21855,0.62972 -70.55695,27.50442 -82.6875,62.03125 -4.46802,12.01958 -6.46274,24.84932 -6.34375,37.6875 4.65502,-1.26985 15.12592,3.36303 13.81023,-3.96854 0.12304,-35.74571 24.58288,-71.4216 60.15852,-79.96896 30.0731,-7.9682 63.45327,6.40906 80.141,32.33697 10.27167,15.09278 15.32777,33.37605 14.9215,51.60053 4.08399,-1.48874 14.54131,3.3062 13.70593,-3.03117 0.1665,-40.38074 -25.98975,-80.3238 -65.03102,-92.5933 -9.23257,-2.96998 -18.95771,-4.37809 -28.67491,-4.09428 z"
       id="path5715"
       inkscape:connector-curvature="0" /><path
       style="font-size:medium;font-style:normal;font-variant:normal;font-weight:normal;font-stretch:normal;text-indent:0;text-align:start;text-decoration:none;line-height:normal;letter-spacing:normal;word-spacing:normal;text-transform:none;direction:ltr;block-progression:tb;writing-mode:lr-tb;text-anchor:start;baseline-shift:baseline;color:#000000;fill:#ffffff;fill-opacity:1;stroke:none;stroke-width:4.57562447;marker:none;visibility:visible;display:inline;overflow:visible;enable-background:accumulate;font-family:Sans;-inkscape-font-specification:Sans"
       d="m 789.99599,122.46875 c -3.57998,0.65245 -10.82138,-1.13689 -9.78125,4.28125 -0.35994,4.38049 -1.71981,9.21858 4.21875,6.5625 23.58337,-3.88776 47.06793,12.76684 54.15821,35.09459 2.37517,6.84872 3.36208,13.98782 3.18554,21.24916 4.99521,-0.1822 12.52466,1.96855 10.3125,-5.3125 -0.79957,-29.3714 -23.29558,-57.68901 -53.125,-61.34375 -2.95308,-0.45699 -5.96993,-0.61015 -8.96875,-0.53125 z"
       id="path5717"
       inkscape:connector-curvature="0" /><g
       id="g5719"
       transform="matrix(0,-1.858601,1.858601,0,301.53977,-330.71057)"
       style="fill:none;stroke:#ffffff;stroke-width:2.69019556;stroke-miterlimit:4;stroke-dasharray:none"><path
         id="path5721"
         d="m -222.22009,166.77648 c 0.2398,-0.0147 0.48156,-0.0222 0.72506,-0.0222 6.44212,0 11.66447,5.22238 11.66447,11.66447 l 0,0 c 0,0.41172 -0.0213,0.81846 -0.063,1.21918"
         style="fill:none;stroke:#ffffff;stroke-width:3.22823453;stroke-miterlimit:4;stroke-opacity:1;stroke-dasharray:none"
         inkscape:connector-curvature="0" /><path
         id="path5723"
         d="m -222.20252,156.89576 c 0.23491,-0.008 0.47077,-0.0114 0.70752,-0.0114 11.89313,0 21.53442,9.64129 21.53442,21.53442 0,0.39602 -0.0107,0.78954 -0.0318,1.18029"
         style="fill:none;stroke:#ffffff;stroke-width:3.76627374;stroke-miterlimit:4;stroke-opacity:1;stroke-dasharray:none"
         inkscape:connector-curvature="0" /><path
         id="path5725"
         d="m -222.20008,146.12469 c 0.23442,-0.005 0.46946,-0.008 0.70508,-0.008 17.83969,0 32.30164,14.46195 32.30164,32.30164 0,0.39696 -0.007,0.79225 -0.0214,1.18574"
         style="fill:none;stroke:#ffffff;stroke-width:4.84235191;stroke-miterlimit:4;stroke-opacity:1;stroke-dasharray:none"
         inkscape:connector-curvature="0" /></g></g><g
     id="g6027"
     transform="matrix(1.1227867,0,0,1.1227867,-19.505826,-83.503948)"><g
       id="g6052" /></g></svg>