<?xml version="1.0" encoding="UTF-8" standalone="no"?>
<!-- Generator: Adobe Illustrator 17.1.0, SVG Export Plug-In . SVG Version: 6.00 Build 0)  -->

<svg
   xmlns:dc="http://purl.org/dc/elements/1.1/"
   xmlns:cc="http://creativecommons.org/ns#"
   xmlns:rdf="http://www.w3.org/1999/02/22-rdf-syntax-ns#"
   xmlns:svg="http://www.w3.org/2000/svg"
   xmlns="http://www.w3.org/2000/svg"
   xmlns:sodipodi="http://sodipodi.sourceforge.net/DTD/sodipodi-0.dtd"
   xmlns:inkscape="http://www.inkscape.org/namespaces/inkscape"
   version="1.1"
   id="Capa_1"
   x="0px"
   y="0px"
   viewBox="0 0 315.48433 316.72806"
   xml:space="preserve"
   inkscape:version="0.48.4 r9939"
   width="100%"
   height="100%"
   sodipodi:docname="icon.svg"><metadata
     id="metadata43"><rdf:RDF><cc:Work
         rdf:about=""><dc:format>image/svg+xml</dc:format><dc:type
           rdf:resource="http://purl.org/dc/dcmitype/StillImage" /><dc:title></dc:title></cc:Work></rdf:RDF></metadata><defs
     id="defs41" /><sodipodi:namedview
     pagecolor="#ffffff"
     bordercolor="#666666"
     borderopacity="1"
     objecttolerance="10"
     gridtolerance="10"
     guidetolerance="10"
     inkscape:pageopacity="0"
     inkscape:pageshadow="2"
     inkscape:window-width="1600"
     inkscape:window-height="793"
     id="namedview39"
     showgrid="false"
     showguides="true"
     inkscape:guide-bbox="true"
     fit-margin-top="1"
     fit-margin-left="1"
     fit-margin-right="1"
     fit-margin-bottom="1"
     units="mm"
     inkscape:zoom="1"
     inkscape:cx="284.22889"
     inkscape:cy="49.383706"
     inkscape:window-x="0"
     inkscape:window-y="30"
     inkscape:window-maximized="1"
     inkscape:current-layer="g6052"><sodipodi:guide
       orientation="1,0"
       position="-468.23442,249.97881"
       id="guide5729" /></sodipodi:namedview><g
     id="g9"
     transform="translate(7.9379506,8.2189668)" /><g
     id="g11"
     transform="translate(7.9379506,8.2189668)" /><g
     id="g13"
     transform="translate(7.9379506,8.2189668)" /><g
     id="g15"
     transform="translate(7.9379506,8.2189668)" /><g
     id="g17"
     transform="translate(7.9379506,8.2189668)" /><g
     id="g19"
     transform="translate(7.9379506,8.2189668)" /><g
     id="g21"
     transform="translate(7.9379506,8.2189668)" /><g
     id="g23"
     transform="translate(7.9379506,8.2189668)" /><g
     id="g25"
     transform="translate(7.9379506,8.2189668)" /><g
     id="g27"
     transform="translate(7.9379506,8.2189668)" /><g
     id="g29"
     transform="translate(7.9379506,8.2189668)" /><g
     id="g31"
     transform="translate(7.9379506,8.2189668)" /><g
     id="g33"
     transform="translate(7.9379506,8.2189668)" /><g
     id="g35"
     transform="translate(7.9379506,8.2189668)" /><g
     id="g37"
     transform="translate(7.9379506,8.2189668)" /><g
     style="font-size:163.59852599999999256px;font-style:normal;font-variant:normal;font-stretch:normal;text-align:start;line-height:125%;letter-spacing:0px;word-spacing:0px;writing-mode:lr-tb;text-anchor:start;fill:#ffffff;fill-opacity:1;stroke:none;font-family:Roboto;-inkscape-font-specification:Roboto Semi-Light;stroke-width:2.70000002;stroke-miterlimit:4;stroke-dasharray:none"
     id="text4957" /><path
     style="fill:#ff7400;fill-opacity:1;fill-rule:nonzero;stroke:none"
     d="M 25.1875,4.1562499 C 12.599875,4.3649299 2.6713883,16.79607 4.28125,29.125 4.3443652,117.24919 4.1554259,205.37975 4.375,293.5 c 0.9999643,12.54275 13.696983,21.49043 25.90625,19.6875 87.79086,-0.0631 175.58809,0.12583 263.375,-0.0937 12.55166,-0.98662 21.499,-13.70679 19.6875,-25.90625 -0.0631,-87.79086 0.12583,-175.58809 -0.0937,-263.375 C 312.28327,11.26178 299.53446,2.3075999 287.3438,4.1250499 c -87.38525,0.0209 -174.77179,-0.0418 -262.15625,0.0312 z"
     id="rect5865"
     inkscape:connector-curvature="0" /><g
     id="g6027"
     transform="matrix(1.1227867,0,0,1.1227867,-19.505826,-83.503948)"><g
       id="g6052"><g
         id="g6021"
         transform="matrix(1.2131451,0,0,1.2131451,-33.667644,-458.55986)"><path
           style="font-size:67.7912674px;font-style:normal;font-variant:normal;font-weight:normal;font-stretch:normal;text-align:start;line-height:125%;letter-spacing:0px;word-spacing:0px;writing-mode:lr-tb;text-anchor:start;fill:#ffffff;fill-opacity:1;stroke:none;font-family:Raleway;-inkscape-font-specification:Raleway"
           d="m 183.47841,486.06726 c -9.54575,0.43255 -18.01035,8.77482 -18.20564,18.36638 0.37945,1.46227 2.61052,2.07963 3.6382,3.27292 -0.89279,-7.82016 4.23854,-15.87944 11.96663,-17.60659 8.77378,-2.57512 18.2718,4.1461 19.37455,13.0771 0.37498,4.09663 0.56719,9.36148 -3.02453,12.0543 -1.43058,0.73535 -2.983,-0.29193 -2.64464,-1.98713 -0.71743,-5.59159 1.36252,-12.42126 -2.4547,-17.12442 -4.13026,-4.18747 -11.16787,-2.87369 -15.60483,0.14612 -1.10657,0.95748 0.97652,5.92544 2.67386,3.03914 2.99327,-1.92118 8.59413,-3.0574 10.43245,0.9059 0.31256,1.16549 1.51193,4.12125 -0.65751,2.96609 -4.86053,-1.10495 -11.70784,-0.61903 -13.98299,4.55871 -1.70112,4.38982 1.33828,9.97523 6.26824,10.24251 3.42511,0.72723 7.18546,-0.8223 9.73111,-2.42547 1.01618,4.75356 7.88777,4.51451 10.31556,1.09584 3.60105,-5.19375 3.54211,-12.3744 1.50495,-18.17642 -2.79087,-7.84329 -11.00464,-13.1142 -19.33071,-12.40498 z m 0.96435,20.4704 c 2.04021,-0.0979 3.9287,0.37833 5.84451,0.93512 0.47706,2.66247 -1.0004,5.42528 -3.72588,5.9614 -2.78779,1.35289 -7.76948,0.78629 -7.80242,-3.08297 -0.18704,-3.05517 3.34427,-3.78821 5.68379,-3.81355 z m 7.45175,13.77843 c -4.42966,2.36036 -9.82822,2.40351 -14.37749,0.30684 0.77733,1.79578 0.2998,4.82373 2.93686,4.70483 4.63357,0.97928 9.53608,0.16375 13.69076,-2.0748 -0.7638,-0.7113 -0.72458,-4.42439 -2.25013,-2.93687 z"
           id="path5867"
           inkscape:connector-curvature="0" /><path
           style="font-size:163.598526px;font-style:normal;font-variant:normal;font-stretch:normal;text-align:start;line-height:125%;letter-spacing:0px;word-spacing:0px;writing-mode:lr-tb;text-anchor:start;fill:#ffffff;fill-opacity:1;stroke:none;font-family:Roboto;-inkscape-font-specification:Roboto Semi-Light"
           d="m 145.64982,502.57801 c -12.53796,0.12235 -24.46424,9.03953 -27.53297,21.33081 -3.29835,12.25564 1.3287,26.46993 12.22036,33.31535 8.67779,5.74415 20.3698,5.86173 29.45633,0.97896 -0.90728,-2.14944 -1.3084,-5.49461 -3.97427,-3.12681 -10.38698,5.02557 -24.09987,1.15296 -30.07,-8.86905 -6.83018,-10.56038 -4.87954,-26.30953 5.39155,-34.01505 9.4515,-7.67001 24.66589,-6.71677 32.68874,2.61573 7.08644,7.55472 8.5675,19.49768 4.4093,28.79851 -1.0142,2.51921 -4.61974,4.83574 -6.92575,2.61542 -1.74561,-5.14467 -0.44939,-10.84127 -0.87201,-16.20379 0.0731,-5.41016 -0.96156,-11.8682 -6.27291,-14.56755 -6.74085,-3.25984 -14.99963,-1.19707 -20.85029,3.00992 1.17105,1.421 1.43002,6.28057 3.66744,3.66743 4.20803,-2.77361 10.24402,-4.37122 14.80122,-1.62185 2.77438,1.97472 3.10872,5.56444 3.31677,8.72293 -6.66625,-2.09164 -14.95841,-2.33957 -20.63113,2.2063 -5.82052,4.99601 -3.3534,15.99509 4.07655,17.98649 5.97536,1.86562 12.67217,0.24943 17.40202,-3.72589 0.23086,3.85822 3.96576,6.67727 7.75859,6.06368 5.52223,-0.0607 9.27464,-5.26452 10.28634,-10.19867 3.31493,-11.92083 -0.38528,-25.95903 -10.53473,-33.38675 -5.09039,-3.74536 -11.43758,-5.80617 -17.81115,-5.59612 z m 0.073,30.08461 c 3.22032,-0.18225 6.29772,0.63823 9.3366,1.50496 0.42875,3.63186 -0.5809,7.98258 -4.44183,9.24894 -4.15348,2.07653 -10.98608,2.86694 -13.47158,-2.0748 -1.57619,-3.26442 0.42928,-7.37336 4.04731,-8.0362 1.47323,-0.39594 3.00371,-0.60516 4.5295,-0.6429 z"
           id="path5869"
           inkscape:connector-curvature="0" /><path
           style="font-size:medium;font-style:normal;font-variant:normal;font-weight:normal;font-stretch:normal;text-indent:0;text-align:start;text-decoration:none;line-height:normal;letter-spacing:normal;word-spacing:normal;text-transform:none;direction:ltr;block-progression:tb;writing-mode:lr-tb;text-anchor:start;baseline-shift:baseline;color:#000000;fill:#ffffff;fill-opacity:1;stroke:none;stroke-width:4.57562447;marker:none;visibility:visible;display:inline;overflow:visible;enable-background:accumulate;font-family:Sans;-inkscape-font-specification:Sans"
           d="m 144.51015,569.22003 c -17.40194,0.29443 -32.98968,12.85999 -38.66144,29.00337 -2.08907,5.61989 -3.02172,11.61857 -2.96609,17.6212 2.1765,-0.59373 7.07228,1.57242 6.45712,-1.85554 0.0575,-16.71328 11.494,-33.39393 28.12778,-37.39034 14.061,-3.72562 29.66826,2.99663 37.47078,15.11949 4.80263,7.0568 7.16666,15.60534 6.9767,24.12639 1.90952,-0.69607 6.79895,1.54585 6.40836,-1.41726 0.0778,-18.88044 -12.15179,-37.55625 -30.40595,-43.29299 -4.31679,-1.38864 -8.86388,-2.04703 -13.40726,-1.91432 z"
           id="path5871"
           inkscape:connector-curvature="0" /><path
           style="font-size:medium;font-style:normal;font-variant:normal;font-weight:normal;font-stretch:normal;text-indent:0;text-align:start;text-decoration:none;line-height:normal;letter-spacing:normal;word-spacing:normal;text-transform:none;direction:ltr;block-progression:tb;writing-mode:lr-tb;text-anchor:start;baseline-shift:baseline;color:#000000;fill:#ffffff;fill-opacity:1;stroke:none;stroke-width:4.57562447;marker:none;visibility:visible;display:inline;overflow:visible;enable-background:accumulate;font-family:Sans;-inkscape-font-specification:Sans"
           d="m 183.81447,530.06182 c -1.67386,0.30505 -5.05965,-0.53157 -4.57333,2.00174 -0.16829,2.04815 -0.80411,4.31024 1.97252,3.06837 11.02666,-1.81777 22.00712,5.96927 25.32226,16.40885 1.11054,3.20219 1.57197,6.54015 1.48943,9.93527 2.33557,-0.0852 5.85605,0.92042 4.82172,-2.48392 -0.37385,-13.73291 -10.89209,-26.97311 -24.83917,-28.68193 -1.38074,-0.21367 -2.7913,-0.28528 -4.19343,-0.24838 z"
           id="path5873"
           inkscape:connector-curvature="0" /></g><path
         inkscape:connector-curvature="0"
         style="fill:none;stroke:#ffffff;stroke-width:4.57860613;stroke-miterlimit:4"
         d="m 49.822801,260.94825 c -5.793846,-13.73112 -8.99697,-28.82277 -8.99697,-44.66255 0,-13.97413 2.493013,-27.36598 7.058545,-39.75506"
         id="path5955" /><path
         id="path5941"
         style="fill:none;stroke:#ffffff;stroke-width:4.57860613;stroke-linecap:round;stroke-linejoin:round;stroke-miterlimit:4"
         d="M 91.489957,332.29166 C 63.562726,316.77656 41.825072,291.46947 30.915376,261.00878 m 60.53664,61.05443 C 68.350281,307.97955 50.224167,286.54073 40.327311,261.00039 M 91.51686,311.62411 C 73.140008,299.20895 58.545432,281.62044 49.822801,260.94825 m 41.632314,38.66176 C 78.296974,289.43408 67.615216,276.21062 60.467749,260.99756"
         inkscape:connector-curvature="0" /><path
         inkscape:connector-curvature="0"
         style="fill:none;stroke:#ffffff;stroke-width:4.57860613;stroke-linecap:round;stroke-linejoin:round;stroke-miterlimit:4"
         d="m 200.14882,120.7837 c 14.48505,6.73791 27.18141,16.67427 37.18154,28.90157"
         id="path5985" /><path
         inkscape:connector-curvature="0"
         style="fill:none;stroke:#ffffff;stroke-width:4.57860613;stroke-linecap:round;stroke-linejoin:round;stroke-miterlimit:4"
         d="m 200.08992,110.152 c 19.93328,8.32791 37.02124,22.10764 49.40037,39.47571"
         id="path5979" /><path
         inkscape:connector-curvature="0"
         style="fill:none;stroke:#ffffff;stroke-width:4.57860613;stroke-linecap:round;stroke-linejoin:round;stroke-miterlimit:4"
         d="m 200.13652,100.66716 c 24.84855,9.53466 45.84215,26.8494 59.99861,48.96202"
         id="path5973" /><path
         inkscape:connector-curvature="0"
         style="fill:none;stroke:#ffffff;stroke-width:4.57860613;stroke-miterlimit:4"
         d="m 108.53132,101.83569 c 14.56448,-6.021885 30.52856,-9.344595 47.2687,-9.344595 15.62381,0 30.57162,2.89433 44.3365,8.176065"
         id="path5971" /><path
         inkscape:connector-curvature="0"
         style="fill:none;stroke:#ffffff;stroke-width:4.57860613;stroke-linecap:round;stroke-linejoin:round;stroke-miterlimit:4"
         d="m 260.5407,226.92595 c -2.20548,21.97305 -11.16792,41.95367 -24.77847,57.83303"
         id="path6009" /><path
         inkscape:connector-curvature="0"
         style="fill:none;stroke:#ffffff;stroke-width:4.57860613;stroke-linecap:round;stroke-linejoin:round;stroke-miterlimit:4"
         d="m 270.61495,222.39015 c -1.45123,27.74163 -12.73603,52.87909 -30.43424,71.99222"
         id="path6003" /><path
         inkscape:connector-curvature="0"
         style="fill:none;stroke:#ffffff;stroke-width:4.57860613;stroke-miterlimit:4"
         d="m 249.49029,149.62771 c 13.40121,18.80207 21.28394,41.80947 21.28394,66.65799 0,2.04776 -0.0535,4.08302 -0.15928,6.10445"
         id="path6001" /><path
         inkscape:connector-curvature="0"
         style="fill:none;stroke:#ffffff;stroke-width:4.57860613;stroke-miterlimit:4"
         d="m 244.10114,303.0499 c -22.4602,22.85555 -53.72531,37.03042 -88.30112,37.03042 -23.56747,0 -45.59677,-6.58568 -64.348006,-18.01711"
         id="path5999" /><path
         inkscape:connector-curvature="0"
         style="fill:none;stroke:#ffffff;stroke-width:4.57860613;stroke-linecap:round;stroke-linejoin:round;stroke-miterlimit:4"
         d="m 279.57946,218.24449 c -0.51218,33.01798 -13.95086,62.89903 -35.47832,84.80541"
         id="path5997" /><path
         inkscape:connector-curvature="0"
         style="fill:none;stroke:#ffffff;stroke-width:4.57860613;stroke-linecap:round;stroke-linejoin:round;stroke-miterlimit:4"
         d="m 288.39862,214.17727 c 0.0109,0.7015 0.0164,1.40433 0.0164,2.10844 0,37.39429 -15.47725,71.17367 -40.37526,95.28168"
         id="path5991" /><path
         inkscape:connector-curvature="0"
         style="fill:none;stroke:#ffffff;stroke-width:4.57860613;stroke-linecap:round;stroke-linejoin:round;stroke-miterlimit:4"
         d="m 200.15737,91.270675 c 29.76523,10.561645 54.64043,31.452235 70.31522,58.361395"
         id="path5967" /><path
         style="fill:none;stroke:#ffffff;stroke-width:4.57860613;stroke-linecap:round;stroke-linejoin:round;stroke-miterlimit:4"
         d="M 29.227123,176.59373 C 41.36438,137.85025 70.799596,106.75671 108.4861,92.359785"
         id="path6113"
         inkscape:connector-curvature="0" /><path
         style="fill:none;stroke:#ffffff;stroke-width:4.57860613;stroke-linecap:round;stroke-linejoin:round;stroke-miterlimit:4"
         d="M 38.521861,176.54565 C 49.989914,142.69062 75.70591,115.40779 108.53132,101.83569"
         id="path6111"
         inkscape:connector-curvature="0" /><path
         style="fill:none;stroke:#ffffff;stroke-width:4.57860613;stroke-linecap:round;stroke-linejoin:round;stroke-miterlimit:4"
         d="m 47.884376,176.53064 c 10.670903,-28.95669 32.66367,-52.43538 60.609314,-65.0671"
         id="path6109"
         inkscape:connector-curvature="0" /><path
         style="fill:none;stroke:#ffffff;stroke-width:4.57860613;stroke-linecap:round;stroke-linejoin:round;stroke-miterlimit:4"
         d="m 57.649556,175.9356 c 9.628766,-23.6163 27.586842,-42.95088 50.224964,-54.35446"
         id="path5889"
         inkscape:connector-curvature="0" /></g></g></svg>