<?xml version="1.0" encoding="UTF-8" standalone="no"?>
<!-- Generator: Adobe Illustrator 17.1.0, SVG Export Plug-In . SVG Version: 6.00 Build 0)  -->

<svg
   xmlns:dc="http://purl.org/dc/elements/1.1/"
   xmlns:cc="http://creativecommons.org/ns#"
   xmlns:rdf="http://www.w3.org/1999/02/22-rdf-syntax-ns#"
   xmlns:svg="http://www.w3.org/2000/svg"
   xmlns="http://www.w3.org/2000/svg"
   xmlns:sodipodi="http://sodipodi.sourceforge.net/DTD/sodipodi-0.dtd"
   xmlns:inkscape="http://www.inkscape.org/namespaces/inkscape"
   version="1.1"
   id="Capa_1"
   x="0px"
   y="0px"
   viewBox="0 0 155.90551 155.90551"
   xml:space="preserve"
   inkscape:version="0.48.4 r9939"
   width="100%"
   height="100%"
   sodipodi:docname="icon_logout.svg"
   inkscape:export-filename="/home/mahieke/work/meetat-starhack/meetat-assets/logos/logo_colored.png"
   inkscape:export-xdpi="37.43858"
   inkscape:export-ydpi="37.43858"><metadata
     id="metadata43"><rdf:RDF><cc:Work
         rdf:about=""><dc:format>image/svg+xml</dc:format><dc:type
           rdf:resource="http://purl.org/dc/dcmitype/StillImage" /><dc:title></dc:title></cc:Work></rdf:RDF></metadata><defs
     id="defs41" /><sodipodi:namedview
     pagecolor="#ffffff"
     bordercolor="#666666"
     borderopacity="1"
     objecttolerance="10"
     gridtolerance="10"
     guidetolerance="10"
     inkscape:pageopacity="0"
     inkscape:pageshadow="2"
     inkscape:window-width="1600"
     inkscape:window-height="793"
     id="namedview39"
     showgrid="false"
     showguides="true"
     inkscape:guide-bbox="true"
     fit-margin-top="3"
     fit-margin-left="3"
     fit-margin-right="3"
     fit-margin-bottom="3"
     units="mm"
     inkscape:zoom="1.4142136"
     inkscape:cx="94.307942"
     inkscape:cy="88.097701"
     inkscape:window-x="0"
     inkscape:window-y="30"
     inkscape:window-maximized="1"
     inkscape:current-layer="g3299" /><g
     id="g9"
     transform="translate(-3.3281481,-85.885464)" /><g
     id="g11"
     transform="translate(-3.3281481,-85.885464)" /><g
     id="g13"
     transform="translate(-3.3281481,-85.885464)" /><g
     id="g15"
     transform="translate(-3.3281481,-85.885464)" /><g
     id="g17"
     transform="translate(-3.3281481,-85.885464)" /><g
     id="g19"
     transform="translate(-3.3281481,-85.885464)" /><g
     id="g21"
     transform="translate(-3.3281481,-85.885464)" /><g
     id="g23"
     transform="translate(-3.3281481,-85.885464)" /><g
     id="g25"
     transform="translate(-3.3281481,-85.885464)" /><g
     id="g27"
     transform="translate(-3.3281481,-85.885464)" /><g
     id="g29"
     transform="translate(-3.3281481,-85.885464)" /><g
     id="g31"
     transform="translate(-3.3281481,-85.885464)" /><g
     id="g33"
     transform="translate(-3.3281481,-85.885464)" /><g
     id="g35"
     transform="translate(-3.3281481,-85.885464)" /><g
     id="g37"
     transform="translate(-3.3281481,-85.885464)" /><text
     xml:space="preserve"
     style="font-size:12px;font-style:normal;font-variant:normal;font-weight:normal;font-stretch:normal;text-align:start;line-height:125%;letter-spacing:0px;word-spacing:0px;writing-mode:lr-tb;text-anchor:start;fill:#000000;fill-opacity:1;stroke:none;font-family:Abyssinica SIL;-inkscape-font-specification:Abyssinica SIL"
     x="-138.15891"
     y="169.3287"
     id="text4363"
     sodipodi:linespacing="125%"><tspan
       sodipodi:role="line"
       id="tspan4365"
       x="-138.15891"
       y="169.3287"
       style="font-style:normal;font-variant:normal;font-weight:normal;font-stretch:normal;font-family:Abyssinica SIL;-inkscape-font-specification:Abyssinica SIL" /></text>
<text
     xml:space="preserve"
     style="font-size:12px;font-style:italic;font-variant:normal;font-weight:bold;font-stretch:normal;text-align:start;line-height:125%;letter-spacing:0px;word-spacing:0px;writing-mode:lr-tb;text-anchor:start;fill:#000000;fill-opacity:1;stroke:none;font-family:WenQuanYi Micro Hei Mono;-inkscape-font-specification:WenQuanYi Micro Hei Mono Bold Italic"
     x="-147.59656"
     y="168.21838"
     id="text4371"
     sodipodi:linespacing="125%"><tspan
       sodipodi:role="line"
       id="tspan4373"
       x="-147.59656"
       y="168.21838" /></text>
<g
     id="g3299"
     transform="matrix(2.2165955,0,0,2.2165955,-84.861587,-65.784514)"><path
       id="path3261"
       d="m 65.03125,44.46875 c -10.53056,3.550343 -18.125,13.490092 -18.125,25.21875 0,14.705471 11.919528,26.625 26.625,26.625 14.705471,0 26.625,-11.919529 26.625,-26.625 0,-11.728658 -7.59444,-21.668407 -18.125,-25.21875 l 0,2.78125 c 0.16405,0.05664 0.33676,0.09624 0.5,0.15625 2.883489,1.060156 5.431062,2.589602 7.59375,4.625 2.205006,2.035462 3.946558,4.583035 5.21875,7.59375 1.3145,3.010765 1.968699,6.442524 1.96875,10.34375 -5.1e-5,0.93292 -0.111681,2.272568 -0.28125,3.96875 -0.16967,1.696201 -0.571573,3.366314 -1.25,5.0625 -0.636121,1.653792 -1.622998,3.114012 -2.9375,4.34375 -1.314595,1.22974 -3.116433,1.843749 -5.40625,1.84375 -1.14497,-10e-7 -2.080502,-0.160762 -2.84375,-0.5 -0.72092,-0.296834 -1.314834,-0.709891 -1.78125,-1.21875 -0.424084,-0.508856 -0.756761,-1.062581 -0.96875,-1.65625 -0.212059,-0.636069 -0.352725,-1.250079 -0.4375,-1.84375 -1.314583,1.314553 -2.915469,2.401905 -4.78125,3.25 C 74.801564,84.066846 72.758585,84.5 70.46875,84.5 c -3.265193,0 -5.741325,-0.886401 -7.4375,-2.625 -1.653803,-1.738594 -2.500014,-3.893204 -2.5,-6.4375 -1.4e-5,-1.780992 0.372853,-3.250153 1.09375,-4.4375 0.720866,-1.187321 1.636302,-2.154102 2.78125,-2.875 0.960558,-0.617498 2.022865,-1.069697 3.15625,-1.375 -1.484725,-0.583393 -2.53125,-2.022125 -2.53125,-3.71875 l 0,-1.15625 c -0.286069,0.190427 -0.547475,0.381732 -0.8125,0.59375 l -1.59375,-4.5 c 0.772761,-0.522133 1.572035,-0.980796 2.40625,-1.375 l 0,-5.8125 c -0.0092,0.0037 -0.02206,-0.0037 -0.03125,0 -2.459496,1.017748 -4.594011,2.426624 -6.375,4.25 -1.781013,1.781031 -3.169793,3.93564 -4.1875,6.4375 -0.975318,2.459501 -1.468756,5.136584 -1.46875,8.0625 -6e-6,2.841135 0.473337,5.529374 1.40625,8.03125 0.932897,2.459484 2.241297,4.602939 3.9375,6.46875 1.738585,1.823406 3.801659,3.283627 6.21875,4.34375 2.417055,1.102521 5.145484,1.656244 8.15625,1.65625 1.992999,-6e-6 3.734551,-0.252302 5.21875,-0.71875 1.484136,-0.424053 2.993486,-0.997873 4.5625,-1.71875 l 1.09375,3.3125 c -1.781038,0.848089 -3.602971,1.482193 -5.46875,1.90625 -1.865843,0.424039 -3.748061,0.624991 -5.65625,0.625 -3.180385,-9e-6 -6.170051,-0.562673 -8.96875,-1.75 -2.798733,-1.144937 -5.25477,-2.786013 -7.375,-4.90625 -2.077844,-2.077837 -3.739016,-4.574064 -4.96875,-7.5 -1.187339,-2.96833 -1.781253,-6.250483 -1.78125,-9.8125 -3e-6,-3.731606 0.654197,-7.042795 1.96875,-9.96875 1.356948,-2.968311 3.138691,-5.475693 5.34375,-7.46875 2.247444,-2.035398 4.803957,-3.564844 7.6875,-4.625 0.231359,-0.08382 0.454587,-0.172764 0.6875,-0.25 l 0,-2.6875 z m 17,6.59375 0,6.46875 c 0.568469,0.526294 1.031917,1.105359 1.40625,1.75 0.76325,1.314573 1.236592,2.774793 1.40625,4.34375 0.169581,1.526593 0.249961,2.995753 0.25,4.4375 l 0,6.125 c -3.9e-5,0.97532 0.02005,1.870662 0.0625,2.71875 0.08477,0.848103 0.225437,1.634028 0.4375,2.3125 0.211985,0.678482 0.544662,1.18086 0.96875,1.5625 0.424008,0.381647 1.017922,0.593753 1.78125,0.59375 1.144888,3e-6 2.040229,-0.43315 2.71875,-1.28125 0.720837,-0.890496 1.274561,-1.937658 1.65625,-3.125 0.381597,-1.229731 0.653989,-2.497941 0.78125,-3.8125 0.169572,-1.356943 0.249953,-2.50458 0.25,-3.4375 -4.7e-5,-2.883511 -0.51358,-5.560595 -1.53125,-8.0625 C 91.243394,59.15439 89.823364,56.979685 88,55.15625 86.337874,53.415043 84.35584,52.063648 82.03125,51.0625 z m -2.0625,15.46875 C 79.541937,66.767435 79.067914,66.93324 78.5625,67 c 0.566787,0.180263 1.07131,0.32913 1.4375,0.5 -1e-5,-0.334764 -0.01379,-0.647621 -0.03125,-0.96875 z M 72.8125,70.1875 c -2.035456,1.4e-5 -3.736818,0.361727 -5.09375,1.125 -1.314569,0.720895 -1.968769,1.928818 -1.96875,3.625 -1.9e-5,1.229749 0.413039,2.35729 1.21875,3.375 0.848076,1.01772 2.17657,1.531255 4,1.53125 0.932881,5e-6 1.899663,-0.120567 2.875,-0.375 0.975283,-0.296829 1.850529,-0.649601 2.65625,-1.03125 1.314519,-0.636066 2.221014,-1.350551 2.6875,-2.15625 0.508825,-0.805683 0.749966,-1.772465 0.75,-2.875 l 0,-1.90625 c -0.593701,-0.212011 -1.540387,-0.473248 -2.8125,-0.8125 -1.272174,-0.339225 -2.701144,-0.499986 -4.3125,-0.5 z"
       style="fill:#ff7400;fill-opacity:1;fill-rule:nonzero;stroke:#ff7400;stroke-width:0.95924801;stroke-linecap:round;stroke-linejoin:round;stroke-miterlimit:4;stroke-opacity:1"
       inkscape:connector-curvature="0"
       transform="translate(-6.6293948e-6,0)" /><rect
       ry="4"
       rx="4"
       y="32.676964"
       x="69.499992"
       height="26.375"
       width="8.25"
       id="rect3297"
       style="fill:#ff7400;fill-opacity:1;fill-rule:nonzero;stroke:#ff7400;stroke-width:0.80000001;stroke-linecap:round;stroke-linejoin:round;stroke-miterlimit:4;stroke-opacity:1;stroke-dasharray:none" /></g></svg>