<?xml version="1.0" encoding="UTF-8" standalone="no"?>
<!-- Generator: Adobe Illustrator 17.1.0, SVG Export Plug-In . SVG Version: 6.00 Build 0)  -->

<svg
   xmlns:dc="http://purl.org/dc/elements/1.1/"
   xmlns:cc="http://creativecommons.org/ns#"
   xmlns:rdf="http://www.w3.org/1999/02/22-rdf-syntax-ns#"
   xmlns:svg="http://www.w3.org/2000/svg"
   xmlns="http://www.w3.org/2000/svg"
   xmlns:sodipodi="http://sodipodi.sourceforge.net/DTD/sodipodi-0.dtd"
   xmlns:inkscape="http://www.inkscape.org/namespaces/inkscape"
   version="1.1"
   id="Capa_1"
   x="0px"
   y="0px"
   viewBox="0 0 338.13913 172.58264"
   xml:space="preserve"
   inkscape:version="0.48.4 r9939"
   width="100%"
   height="100%"
   sodipodi:docname="logo_colored.svg"
   inkscape:export-filename="/home/mahieke/work/meetat-starhack/meetat-assets/logos/logo_colored.png"
   inkscape:export-xdpi="37.43858"
   inkscape:export-ydpi="37.43858"><metadata
     id="metadata43"><rdf:RDF><cc:Work
         rdf:about=""><dc:format>image/svg+xml</dc:format><dc:type
           rdf:resource="http://purl.org/dc/dcmitype/StillImage" /><dc:title /></cc:Work></rdf:RDF></metadata><defs
     id="defs41" /><sodipodi:namedview
     pagecolor="#ffffff"
     bordercolor="#666666"
     borderopacity="1"
     objecttolerance="10"
     gridtolerance="10"
     guidetolerance="10"
     inkscape:pageopacity="0"
     inkscape:pageshadow="2"
     inkscape:window-width="1600"
     inkscape:window-height="793"
     id="namedview39"
     showgrid="false"
     showguides="true"
     inkscape:guide-bbox="true"
     fit-margin-top="4"
     fit-margin-left="6"
     fit-margin-right="6"
     fit-margin-bottom="4"
     units="mm"
     inkscape:zoom="1.5761337"
     inkscape:cx="118.24178"
     inkscape:cy="144.14016"
     inkscape:window-x="0"
     inkscape:window-y="30"
     inkscape:window-maximized="1"
     inkscape:current-layer="text4433" /><path
     style="font-size:67.7912674px;font-style:normal;font-variant:normal;font-weight:normal;font-stretch:normal;text-align:start;line-height:125%;letter-spacing:0px;word-spacing:0px;writing-mode:lr-tb;text-anchor:start;fill:#ff7400;fill-opacity:1;stroke:none;font-family:Raleway;-inkscape-font-specification:Raleway"
     d="m 285.09053,14.180374 c -2.3887,0.112964 -4.7132,0.630326 -6.95544,1.533887 -2.56261,0.994481 -4.83437,2.436696 -6.82323,4.310797 -1.95061,1.87415 -3.52183,4.13128 -4.70748,6.77033 -0.9681,2.19434 -1.51484,4.61567 -1.66614,7.27281 0.68541,0.48148 1.35947,0.98209 2.00994,1.50746 0,-2.83031 0.51302,-5.43038 1.50746,-7.80175 1.03266,-2.37132 2.40452,-4.41445 4.12566,-6.1356 1.72112,-1.7211 3.73495,-3.06367 6.02982,-4.019869 2.33308,-0.994415 4.81883,-1.507446 7.45794,-1.507468 2.67729,2.2e-5 5.16306,0.527709 7.45793,1.560332 2.29481,1.032725 4.26757,2.433865 5.95048,4.231485 1.7211,1.7594 3.06365,3.85826 4.01988,6.26782 0.95615,2.40961 1.42807,4.99504 1.42811,7.74885 -4e-5,1.03269 -0.0997,2.21983 -0.29092,3.59675 -0.15302,1.33864 -0.44025,2.62263 -0.89918,3.80828 -0.459,1.18568 -1.101,2.19993 -1.90415,3.04136 -0.76498,0.80321 -1.72351,1.19011 -2.90912,1.19011 -1.30044,0 -2.1418,-0.54232 -2.48598,-1.61324 -0.30602,-1.07094 -0.44964,-2.44278 -0.44959,-4.12567 l 0,-7.40506 c -5e-5,-1.37688 -0.0997,-2.74873 -0.29091,-4.12566 -0.15303,-1.41513 -0.56638,-2.67266 -1.21654,-3.78184 -0.65024,-1.14742 -1.59412,-2.06197 -2.85624,-2.75046 -1.22394,-0.72668 -2.90946,-1.08428 -5.05129,-1.0843 -1.75941,2e-5 -3.43029,0.25795 -4.9984,0.79339 -1.52992,0.5355 -2.96036,1.25073 -4.33725,2.16864 l 1.03142,2.24795 c 1.10916,-0.84142 2.31097,-1.49806 3.64963,-1.95704 1.37689,-0.4972 2.83377,-0.74049 4.36368,-0.74053 1.41513,4e-5 2.59944,0.22869 3.5174,0.68763 0.9179,0.45898 1.63312,1.10096 2.16863,1.90414 0.53542,0.80322 0.89303,1.76172 1.0843,2.90913 0.22945,1.10918 0.34377,2.35207 0.34381,3.72895 -0.65025,-0.22945 -1.5941,-0.48737 -2.85623,-0.79337 -1.2622,-0.34423 -2.73373,-0.52894 -4.41659,-0.52895 -1.26218,10e-6 -2.5197,0.15544 -3.78185,0.42317 -1.26218,0.22948 -2.43184,0.63102 -3.4645,1.24297 -0.99446,0.57372 -1.80934,1.35933 -2.45954,2.35375 -0.61196,0.99444 -0.92563,2.22268 -0.92562,3.67606 -1e-5,2.25662 0.7563,4.12684 2.24795,5.58023 1.52987,1.41516 3.65804,2.11574 6.37364,2.11574 2.02708,0 3.87085,-0.41336 5.55377,-1.21654 1.68285,-0.80321 3.0547,-1.74705 4.12566,-2.85624 0.0766,0.68845 0.1908,1.35974 0.34382,2.00994 0.15295,0.61196 0.42268,1.16892 0.76694,1.66614 0.34419,0.49721 0.80148,0.86947 1.37522,1.1372 0.61192,0.30598 1.39753,0.44958 2.35375,0.44958 1.30037,0 2.41427,-0.25794 3.33226,-0.7934 0.9179,-0.49721 1.6624,-1.16849 2.2744,-2.00992 0.61192,-0.84143 1.11029,-1.77067 1.45456,-2.80334 0.38244,-1.03269 0.65502,-2.04693 0.8463,-3.04137 0.1912,-0.99442 0.30546,-1.95008 0.3438,-2.82978 0.0765,-0.91793 0.10582,-1.63314 0.10582,-2.16862 -5e-5,-3.25101 -0.55701,-6.2087 -1.66615,-8.88604 -1.10921,-2.67729 -2.61003,-4.99015 -4.52236,-6.90256 -1.9124,-1.95059 -4.14023,-3.436769 -6.66453,-4.46948 -2.52436,-1.070901 -5.18304,-1.586759 -8.0133,-1.586784 -0.34424,0 -0.69019,-0.01617 -1.03142,0 z m 0.89918,21.157244 c 1.83585,4e-5 3.39242,0.19938 4.65461,0.58184 1.30036,0.38247 2.2003,0.6111 2.69755,0.68762 l 0,2.30085 c -5e-5,1.07093 -0.22868,2.11446 -0.68763,3.14713 -0.42073,1.0327 -1.43497,1.93261 -3.04133,2.69754 -0.72675,0.34424 -1.55628,0.63148 -2.51244,0.8992 -0.91795,0.22948 -1.87362,0.37024 -2.82979,0.37024 -1.79765,0 -3.26916,-0.49837 -4.41657,-1.45454 -1.14744,-0.99443 -1.71905,-2.28126 -1.71902,-3.88766 -3e-5,-1.03267 0.21398,-1.88866 0.6347,-2.53887 0.45895,-0.68844 1.04521,-1.24541 1.77193,-1.66613 0.72668,-0.42071 1.56801,-0.69329 2.48598,-0.84629 0.95616,-0.19123 1.92932,-0.29089 2.96201,-0.29093 z m 8.5687,17.66631 c -1.41519,0.68846 -2.84278,1.23077 -4.25791,1.61325 -1.41518,0.38246 -2.93064,0.58183 -4.57526,0.58184 -2.26338,-1e-5 -4.41004,-0.37275 -6.40006,-1.11076 0.21808,0.74164 0.40935,1.48789 0.58181,2.24795 1.85353,0.53372 3.79318,0.79341 5.81825,0.79341 1.60636,0 3.20688,-0.17292 4.81329,-0.55538 1.60635,-0.38248 3.19219,-0.9541 4.76037,-1.71902 l -0.74049,-1.85129 z"
     id="path5057"
     inkscape:connector-curvature="0" /><g
     id="g9"
     transform="translate(14.728286,-73.537445)" /><g
     id="g11"
     transform="translate(14.728286,-73.537445)" /><g
     id="g13"
     transform="translate(14.728286,-73.537445)" /><g
     id="g15"
     transform="translate(14.728286,-73.537445)" /><g
     id="g17"
     transform="translate(14.728286,-73.537445)" /><g
     id="g19"
     transform="translate(14.728286,-73.537445)" /><g
     id="g21"
     transform="translate(14.728286,-73.537445)" /><g
     id="g23"
     transform="translate(14.728286,-73.537445)" /><g
     id="g25"
     transform="translate(14.728286,-73.537445)" /><g
     id="g27"
     transform="translate(14.728286,-73.537445)" /><g
     id="g29"
     transform="translate(14.728286,-73.537445)" /><g
     id="g31"
     transform="translate(14.728286,-73.537445)" /><g
     id="g33"
     transform="translate(14.728286,-73.537445)" /><g
     id="g35"
     transform="translate(14.728286,-73.537445)" /><g
     id="g37"
     transform="translate(14.728286,-73.537445)" /><text
     xml:space="preserve"
     style="font-size:12px;font-style:normal;font-variant:normal;font-weight:normal;font-stretch:normal;text-align:start;line-height:125%;letter-spacing:0px;word-spacing:0px;writing-mode:lr-tb;text-anchor:start;fill:#000000;fill-opacity:1;stroke:none;font-family:Abyssinica SIL;-inkscape-font-specification:Abyssinica SIL"
     x="-120.10246"
     y="181.67668"
     id="text4363"
     sodipodi:linespacing="125%"><tspan
       sodipodi:role="line"
       id="tspan4365"
       x="-120.10246"
       y="181.67668"
       style="font-style:normal;font-variant:normal;font-weight:normal;font-stretch:normal;font-family:Abyssinica SIL;-inkscape-font-specification:Abyssinica SIL" /></text>
<text
     xml:space="preserve"
     style="font-size:12px;font-style:italic;font-variant:normal;font-weight:bold;font-stretch:normal;text-align:start;line-height:125%;letter-spacing:0px;word-spacing:0px;writing-mode:lr-tb;text-anchor:start;fill:#000000;fill-opacity:1;stroke:none;font-family:WenQuanYi Micro Hei Mono;-inkscape-font-specification:WenQuanYi Micro Hei Mono Bold Italic"
     x="-129.54012"
     y="180.56636"
     id="text4371"
     sodipodi:linespacing="125%"><tspan
       sodipodi:role="line"
       id="tspan4373"
       x="-129.54012"
       y="180.56636" /></text>
<g
     style="font-size:72.29414368px;font-style:normal;font-variant:normal;font-weight:normal;font-stretch:normal;text-align:start;line-height:125%;letter-spacing:0px;word-spacing:0px;writing-mode:lr-tb;text-anchor:start;fill:#000000;fill-opacity:1;stroke:none;font-family:Raleway;-inkscape-font-specification:Raleway"
     id="text4433"><path
       d="m 66.73286,89.178619 0,-42.147485 -18.724184,32.604658 -2.96406,0 -18.796477,-32.604658 0,42.147485 -4.988296,0 0,-51.328842 5.132884,0 20.097772,35.134954 20.097772,-35.134954 5.132885,0 0,51.328842 -4.988296,0"
       style="line-height:125%;font-family:Raleway;-inkscape-font-specification:Raleway"
       id="path3017" /><path
       d="m 100.05368,89.901561 c -2.747193,-10e-7 -5.277486,-0.506059 -7.590882,-1.518177 -2.313424,-1.060312 -4.31356,-2.482096 -6.000414,-4.265355 -1.686869,-1.831444 -3.012261,-3.927972 -3.976178,-6.28959 -0.915729,-2.361595 -1.373591,-4.891888 -1.373588,-7.590885 -3e-6,-2.650764 0.457859,-5.13286 1.373588,-7.446297 0.963917,-2.36158 2.289309,-4.409912 3.976178,-6.145002 1.686854,-1.783221 3.662892,-3.180907 5.92812,-4.193061 2.313396,-1.060276 4.843689,-1.590432 7.590885,-1.590471 2.747151,3.9e-5 5.253351,0.530195 7.518591,1.590471 2.31338,1.012154 4.28942,2.40984 5.92812,4.193061 1.63863,1.783286 2.91583,3.831618 3.83159,6.145002 0.91569,2.313437 1.37355,4.771435 1.37359,7.374003 -4e-5,0.385587 -0.0241,0.771155 -0.0723,1.156706 -4e-5,0.385586 -0.0241,0.650664 -0.0723,0.795235 l -32.170894,0 c 0.14458,2.024252 0.602443,3.903897 1.373589,5.638944 0.819323,1.686873 1.83144,3.156852 3.036354,4.409942 1.253085,1.253105 2.674868,2.241124 4.265354,2.96406 1.638649,0.674749 3.373707,1.012121 5.205177,1.012118 1.25308,3e-6 2.48208,-0.168683 3.687,-0.506059 1.20488,-0.337368 2.31339,-0.795231 3.32553,-1.373588 1.01209,-0.578348 1.90372,-1.277191 2.67489,-2.096531 0.8193,-0.867521 1.44585,-1.807344 1.87964,-2.819471 l 4.26536,1.156706 c -0.57839,1.397694 -1.39772,2.674889 -2.458,3.83159 -1.06035,1.108514 -2.28935,2.096533 -3.687,2.96406 -1.39772,0.819334 -2.93999,1.445883 -4.62683,1.879647 -1.68689,0.481961 -3.42194,0.722941 -5.20518,0.722942 m 13.88048,-21.543655 c -0.14462,-2.024213 -0.62659,-3.855663 -1.44588,-5.494355 -0.77117,-1.686835 -1.78329,-3.132717 -3.03636,-4.337649 -1.20493,-1.20487 -2.62671,-2.144693 -4.26535,-2.819471 -1.63869,-0.674711 -3.37375,-1.012084 -5.205181,-1.012118 -1.831471,3.4e-5 -3.566529,0.337407 -5.205178,1.012118 -1.638682,0.674778 -3.084564,1.614601 -4.337649,2.819471 -1.204913,1.204932 -2.192932,2.650814 -2.96406,4.337649 -0.72295,1.686888 -1.156714,3.518338 -1.301294,5.494355 l 27.760952,0"
       style="line-height:125%;font-family:Raleway;-inkscape-font-specification:Raleway"
       id="path3019" /><path
       d="m 142.55473,89.901561 c -2.74719,-10e-7 -5.27749,-0.506059 -7.59088,-1.518177 -2.31343,-1.060312 -4.31356,-2.482096 -6.00042,-4.265355 -1.68687,-1.831444 -3.01226,-3.927972 -3.97617,-6.28959 -0.91573,-2.361595 -1.3736,-4.891888 -1.37359,-7.590885 -1e-5,-2.650764 0.45786,-5.13286 1.37359,-7.446297 0.96391,-2.36158 2.2893,-4.409912 3.97617,-6.145002 1.68686,-1.783221 3.66289,-3.180907 5.92812,-4.193061 2.3134,-1.060276 4.84369,-1.590432 7.59089,-1.590471 2.74715,3.9e-5 5.25335,0.530195 7.51859,1.590471 2.31338,1.012154 4.28942,2.40984 5.92812,4.193061 1.63863,1.783286 2.91582,3.831618 3.83159,6.145002 0.91568,2.313437 1.37355,4.771435 1.37359,7.374003 -4e-5,0.385587 -0.0241,0.771155 -0.0723,1.156706 -4e-5,0.385586 -0.0241,0.650664 -0.0723,0.795235 l -32.17089,0 c 0.14458,2.024252 0.60244,3.903897 1.37358,5.638944 0.81933,1.686873 1.83144,3.156852 3.03636,4.409942 1.25308,1.253105 2.67487,2.241124 4.26535,2.96406 1.63865,0.674749 3.37371,1.012121 5.20518,1.012118 1.25308,3e-6 2.48208,-0.168683 3.687,-0.506059 1.20488,-0.337368 2.31339,-0.795231 3.32553,-1.373588 1.01209,-0.578348 1.90372,-1.277191 2.67489,-2.096531 0.8193,-0.867521 1.44585,-1.807344 1.87964,-2.819471 l 4.26536,1.156706 c -0.57839,1.397694 -1.39772,2.674889 -2.458,3.83159 -1.06035,1.108514 -2.28935,2.096533 -3.687,2.96406 -1.39772,0.819334 -2.93999,1.445883 -4.62683,1.879647 -1.68689,0.481961 -3.42195,0.722941 -5.20518,0.722942 m 13.88048,-21.543655 c -0.14463,-2.024213 -0.62659,-3.855663 -1.44588,-5.494355 -0.77118,-1.686835 -1.78329,-3.132717 -3.03636,-4.337649 -1.20493,-1.20487 -2.62671,-2.144693 -4.26535,-2.819471 -1.6387,-0.674711 -3.37375,-1.012084 -5.20518,-1.012118 -1.83147,3.4e-5 -3.56653,0.337407 -5.20518,1.012118 -1.63868,0.674778 -3.08456,1.614601 -4.33765,2.819471 -1.20491,1.204932 -2.19293,2.650814 -2.96406,4.337649 -0.72295,1.686888 -1.15671,3.518338 -1.30129,5.494355 l 27.76095,0"
       style="line-height:125%;font-family:Raleway;-inkscape-font-specification:Raleway"
       id="path3021" /><path
       d="m 186.36724,87.371266 c -0.2892,0.14459 -0.72297,0.337374 -1.3013,0.578353 -0.53018,0.240981 -1.15672,0.481962 -1.87964,0.722941 -0.72297,0.240981 -1.5423,0.457863 -2.45801,0.650648 -0.91574,0.192784 -1.87966,0.289176 -2.89176,0.289176 -1.06033,0 -2.07245,-0.144588 -3.03636,-0.433765 -0.96393,-0.289176 -1.80736,-0.72294 -2.53029,-1.301294 -0.72295,-0.626548 -1.3013,-1.397684 -1.73506,-2.313413 -0.43377,-0.915721 -0.65065,-1.976034 -0.65065,-3.180942 l 0,-26.965716 -5.20518,0 0,-3.903883 5.20518,0 0,-12.72377 4.916,0 0,12.72377 8.6753,0 0,3.903883 -8.6753,0 0,25.592127 c 0.0964,1.397694 0.57835,2.433909 1.44589,3.108648 0.86751,0.626554 1.90373,0.939828 3.10865,0.939824 1.39766,4e-6 2.62666,-0.216878 3.687,-0.650647 1.06029,-0.481956 1.73503,-0.819328 2.02423,-1.012118 l 1.3013,3.976178"
       style="line-height:125%;font-family:Raleway;-inkscape-font-specification:Raleway"
       id="path3023" /></g><g
     style="font-size:86.86539459px;font-style:normal;font-variant:normal;font-stretch:normal;text-align:start;line-height:125%;letter-spacing:0px;word-spacing:0px;writing-mode:lr-tb;text-anchor:start;fill:#000000;fill-opacity:1;stroke:none;font-family:Roboto;-inkscape-font-specification:Roboto Semi-Light"
     id="text4437"><path
       d="m 244.52238,31.884465 c 4.28531,5.2e-5 8.33903,0.810795 12.16115,2.432231 3.82203,1.563625 7.18082,3.822123 10.07639,6.7755 2.89545,2.895554 5.1829,6.370166 6.86236,10.423848 1.67933,4.053747 2.51903,8.541788 2.5191,13.464136 -7e-5,0.810762 -0.058,1.911056 -0.17373,3.300885 -0.058,1.331951 -0.23171,2.750751 -0.52119,4.256404 -0.28962,1.505677 -0.72395,3.040298 -1.30298,4.603866 -0.52126,1.563583 -1.24514,2.982383 -2.17164,4.256404 -0.92663,1.274028 -2.08483,2.287456 -3.47462,3.040289 -1.3899,0.810743 -3.0693,1.216114 -5.03819,1.216116 -1.44781,-2e-6 -2.63497,-0.231642 -3.56148,-0.694923 -0.8687,-0.405372 -1.56363,-0.984475 -2.08477,-1.737308 -0.52124,-0.752832 -0.89766,-1.59253 -1.12925,-2.519097 -0.23169,-0.98447 -0.40542,-1.997898 -0.52119,-3.040289 -1.62154,1.679403 -3.7063,3.127158 -6.25431,4.34327 -2.54809,1.216117 -5.35674,1.824174 -8.42594,1.824174 -4.11166,0 -7.32568,-1.071339 -9.64206,-3.21402 -2.25852,-2.200584 -3.38777,-5.009229 -3.38775,-8.425943 -2e-5,-2.200576 0.46326,-4.053703 1.38984,-5.559386 0.98446,-1.505647 2.22953,-2.692807 3.73522,-3.561481 1.56355,-0.926542 3.30085,-1.563554 5.21192,-1.911038 1.91101,-0.405349 3.82204,-0.608035 5.73312,-0.608058 2.54801,2.3e-5 4.77755,0.260619 6.68863,0.781788 1.91099,0.463305 3.35875,0.868676 4.34327,1.216116 -5e-5,-2.084746 -0.17378,-3.966827 -0.52119,-5.646251 -0.2896,-1.737279 -0.83975,-3.213989 -1.65044,-4.430135 -0.81079,-1.216082 -1.91109,-2.171601 -3.30089,-2.866558 -1.38989,-0.694888 -3.15615,-1.042349 -5.29879,-1.042385 -2.31644,3.6e-5 -4.51703,0.376452 -6.60177,1.12925 -2.02689,0.694957 -3.88001,1.679431 -5.55938,2.953424 l -1.56358,-3.387751 c 2.08474,-1.389809 4.28533,-2.490103 6.60177,-3.300885 2.37429,-0.810704 4.89338,-1.216076 7.55729,-1.216115 3.24293,3.9e-5 5.79098,0.550186 7.64415,1.650442 1.911,1.042422 3.35875,2.432267 4.34327,4.169539 0.98443,1.67943 1.59248,3.590467 1.82418,5.733116 0.2895,2.084796 0.43427,4.169563 0.43432,6.254309 l 0,11.205636 c -5e-5,2.548059 0.23159,4.632827 0.69493,6.254308 0.52114,1.62149 1.76621,2.432233 3.73521,2.432231 1.79516,2e-6 3.27187,-0.608055 4.43013,-1.824173 1.21606,-1.274021 2.17158,-2.808641 2.86656,-4.603866 0.69486,-1.795208 1.15814,-3.706245 1.38985,-5.733116 0.28948,-2.084753 0.43426,-3.908925 0.43433,-5.47252 -7e-5,-4.169515 -0.72395,-8.078454 -2.17164,-11.726828 -1.44782,-3.648312 -3.47467,-6.804418 -6.08058,-9.468328 -2.5481,-2.721739 -5.55943,-4.864417 -9.034,-6.428039 -3.47466,-1.563529 -7.23882,-2.345317 -11.2925,-2.345366 -3.99584,4.9e-5 -7.76,0.752882 -11.2925,2.2585 -3.47464,1.447803 -6.51492,3.47466 -9.12087,6.080578 -2.60597,2.606 -4.69074,5.704196 -6.25431,9.294597 -1.50567,3.590465 -2.2585,7.528359 -2.2585,11.813694 0,4.111644 0.72387,7.991628 2.17164,11.639963 1.44774,3.590441 3.41669,6.717592 5.90685,9.381462 2.54803,2.721779 5.55936,4.835501 9.034,6.341174 3.47458,1.563568 7.23875,2.345356 11.2925,2.345366 2.4901,-1e-5 4.80651,-0.289561 6.94923,-0.868654 2.14263,-0.579111 4.28531,-1.389854 6.42804,-2.432231 l 1.12925,2.779692 c -2.37437,1.158195 -4.77764,2.026848 -7.20983,2.605962 -2.43227,0.57909 -4.8645,0.868641 -7.29669,0.868654 -4.3433,-1.3e-5 -8.42597,-0.810755 -12.24802,-2.432231 -3.8221,-1.621496 -7.18089,-3.908949 -10.07639,-6.862366 -2.83761,-2.895514 -5.09611,-6.341171 -6.7755,-10.336982 -1.62149,-3.995797 -2.43223,-8.339063 -2.43223,-13.029809 0,-4.922348 0.86865,-9.352478 2.60596,-13.290406 1.79521,-3.995771 4.16953,-7.412473 7.12296,-10.250116 3.01132,-2.837557 6.45698,-5.009189 10.33699,-6.514905 3.87996,-1.563525 7.90471,-2.345313 12.07429,-2.345365 m 5.29878,46.299255 c 2.43219,-1.158198 3.96681,-2.519088 4.60387,-4.082674 0.69488,-1.563565 1.04234,-3.156096 1.04239,-4.777596 l 0,-3.474616 c -0.75288,-0.115802 -2.11377,-0.463263 -4.08268,-1.042385 -1.91108,-0.579082 -4.25644,-0.868634 -7.0361,-0.868654 -1.56361,2e-5 -3.06927,0.144796 -4.517,0.434327 -1.38987,0.231661 -2.63494,0.665987 -3.73521,1.302981 -1.10032,0.637031 -1.99793,1.476729 -2.69282,2.519096 -0.63704,0.98449 -0.95555,2.258515 -0.95552,3.822078 -3e-5,2.432241 0.86862,4.401188 2.60596,5.906847 1.73728,1.447761 3.96682,2.171639 6.68863,2.171635 1.44772,4e-6 2.86652,-0.173727 4.25641,-0.521193 1.44771,-0.405367 2.72174,-0.868648 3.82207,-1.389846"
       style="font-weight:normal;line-height:125%;fill:#ff7400;font-family:Raleway;-inkscape-font-specification:Raleway"
       id="path3014" /></g><g
     style="font-size:86.86539459px;font-style:normal;font-variant:normal;font-stretch:normal;text-align:start;line-height:125%;letter-spacing:0px;word-spacing:0px;writing-mode:lr-tb;text-anchor:start;fill:#000000;fill-opacity:1;stroke:none;font-family:Roboto;-inkscape-font-specification:Roboto Semi-Light"
     id="text4957"><path
       d="m 244.52238,31.884465 c 4.28531,5.2e-5 8.33903,0.810795 12.16115,2.432231 3.82203,1.563625 7.18082,3.822123 10.07639,6.7755 2.89545,2.895554 5.1829,6.370166 6.86236,10.423848 1.67933,4.053747 2.51903,8.541788 2.5191,13.464136 -7e-5,0.810762 -0.058,1.911056 -0.17373,3.300885 -0.058,1.331951 -0.23171,2.750751 -0.52119,4.256404 -0.28962,1.505677 -0.72395,3.040298 -1.30298,4.603866 -0.52126,1.563583 -1.24514,2.982383 -2.17164,4.256404 -0.92663,1.274028 -2.08483,2.287456 -3.47462,3.040289 -1.3899,0.810743 -3.0693,1.216114 -5.03819,1.216116 -1.44781,-2e-6 -2.63497,-0.231642 -3.56148,-0.694923 -0.8687,-0.405372 -1.56363,-0.984475 -2.08477,-1.737308 -0.52124,-0.752832 -0.89766,-1.59253 -1.12925,-2.519097 -0.23169,-0.98447 -0.40542,-1.997898 -0.52119,-3.040289 -1.62154,1.679403 -3.7063,3.127158 -6.25431,4.34327 -2.54809,1.216117 -5.35674,1.824174 -8.42594,1.824174 -4.11166,0 -7.32568,-1.071339 -9.64206,-3.21402 -2.25852,-2.200584 -3.38777,-5.009229 -3.38775,-8.425943 -2e-5,-2.200576 0.46326,-4.053703 1.38984,-5.559386 0.98446,-1.505647 2.22953,-2.692807 3.73522,-3.561481 1.56355,-0.926542 3.30085,-1.563554 5.21192,-1.911038 1.91101,-0.405349 3.82204,-0.608035 5.73312,-0.608058 2.54801,2.3e-5 4.77755,0.260619 6.68863,0.781788 1.91099,0.463305 3.35875,0.868676 4.34327,1.216116 -5e-5,-2.084746 -0.17378,-3.966827 -0.52119,-5.646251 -0.2896,-1.737279 -0.83975,-3.213989 -1.65044,-4.430135 -0.81079,-1.216082 -1.91109,-2.171601 -3.30089,-2.866558 -1.38989,-0.694888 -3.15615,-1.042349 -5.29879,-1.042385 -2.31644,3.6e-5 -4.51703,0.376452 -6.60177,1.12925 -2.02689,0.694957 -3.88001,1.679431 -5.55938,2.953424 l -1.56358,-3.387751 c 2.08474,-1.389809 4.28533,-2.490103 6.60177,-3.300885 2.37429,-0.810704 4.89338,-1.216076 7.55729,-1.216115 3.24293,3.9e-5 5.79098,0.550186 7.64415,1.650442 1.911,1.042422 3.35875,2.432267 4.34327,4.169539 0.98443,1.67943 1.59248,3.590467 1.82418,5.733116 0.2895,2.084796 0.43427,4.169563 0.43432,6.254309 l 0,11.205636 c -5e-5,2.548059 0.23159,4.632827 0.69493,6.254308 0.52114,1.62149 1.76621,2.432233 3.73521,2.432231 1.79516,2e-6 3.27187,-0.608055 4.43013,-1.824173 1.21606,-1.274021 2.17158,-2.808641 2.86656,-4.603866 0.69486,-1.795208 1.15814,-3.706245 1.38985,-5.733116 0.28948,-2.084753 0.43426,-3.908925 0.43433,-5.47252 -7e-5,-4.169515 -0.72395,-8.078454 -2.17164,-11.726828 -1.44782,-3.648312 -3.47467,-6.804418 -6.08058,-9.468328 -2.5481,-2.721739 -5.55943,-4.864417 -9.034,-6.428039 -3.47466,-1.563529 -7.23882,-2.345317 -11.2925,-2.345366 -3.99584,4.9e-5 -7.76,0.752882 -11.2925,2.2585 -3.47464,1.447803 -6.51492,3.47466 -9.12087,6.080578 -2.60597,2.606 -4.69074,5.704196 -6.25431,9.294597 -1.50567,3.590465 -2.2585,7.528359 -2.2585,11.813694 0,4.111644 0.72387,7.991628 2.17164,11.639963 1.44774,3.590441 3.41669,6.717592 5.90685,9.381462 2.54803,2.721779 5.55936,4.835501 9.034,6.341174 3.47458,1.563568 7.23875,2.345356 11.2925,2.345366 2.4901,-1e-5 4.80651,-0.289561 6.94923,-0.868654 2.14263,-0.579111 4.28531,-1.389854 6.42804,-2.432231 l 1.12925,2.779692 c -2.37437,1.158195 -4.77764,2.026848 -7.20983,2.605962 -2.43227,0.57909 -4.8645,0.868641 -7.29669,0.868654 -4.3433,-1.3e-5 -8.42597,-0.810755 -12.24802,-2.432231 -3.8221,-1.621496 -7.18089,-3.908949 -10.07639,-6.862366 -2.83761,-2.895514 -5.09611,-6.341171 -6.7755,-10.336982 -1.62149,-3.995797 -2.43223,-8.339063 -2.43223,-13.029809 0,-4.922348 0.86865,-9.352478 2.60596,-13.290406 1.79521,-3.995771 4.16953,-7.412473 7.12296,-10.250116 3.01132,-2.837557 6.45698,-5.009189 10.33699,-6.514905 3.87996,-1.563525 7.90471,-2.345313 12.07429,-2.345365 m 5.29878,46.299255 c 2.43219,-1.158198 3.96681,-2.519088 4.60387,-4.082674 0.69488,-1.563565 1.04234,-3.156096 1.04239,-4.777596 l 0,-3.474616 c -0.75288,-0.115802 -2.11377,-0.463263 -4.08268,-1.042385 -1.91108,-0.579082 -4.25644,-0.868634 -7.0361,-0.868654 -1.56361,2e-5 -3.06927,0.144796 -4.517,0.434327 -1.38987,0.231661 -2.63494,0.665987 -3.73521,1.302981 -1.10032,0.637031 -1.99793,1.476729 -2.69282,2.519096 -0.63704,0.98449 -0.95555,2.258515 -0.95552,3.822078 -3e-5,2.432241 0.86862,4.401188 2.60596,5.906847 1.73728,1.447761 3.96682,2.171639 6.68863,2.171635 1.44772,4e-6 2.86652,-0.173727 4.25641,-0.521193 1.44771,-0.405367 2.72174,-0.868648 3.82207,-1.389846"
       style="font-weight:normal;line-height:125%;fill:#ff7400;font-family:Raleway;-inkscape-font-specification:Raleway"
       id="path3011" /></g><g
     id="g4961"
     transform="matrix(1.1274566,0,0,1.1274566,188.34141,-1005.7247)"><path
       inkscape:connector-curvature="0"
       id="path4963"
       d="M 49.09375,987.4375 C 25.789168,987.4375 7,1007.7324 7,1032.5312 l 4.59375,0 c 0,-22.5013 16.856866,-40.5312 37.5,-40.5312 20.643235,0 37.5,18.0299 37.5,40.5312 l 4.5625,0 c 0,-24.7988 -18.757829,-45.0937 -42.0625,-45.0937 z"
       style="font-size:medium;font-style:normal;font-variant:normal;font-weight:normal;font-stretch:normal;text-indent:0;text-align:start;text-decoration:none;line-height:normal;letter-spacing:normal;word-spacing:normal;text-transform:none;direction:ltr;block-progression:tb;writing-mode:lr-tb;text-anchor:start;baseline-shift:baseline;color:#000000;fill:#ff7400;fill-opacity:1;stroke:none;stroke-width:4.57562447;marker:none;visibility:visible;display:inline;overflow:visible;enable-background:accumulate;font-family:Sans;-inkscape-font-specification:Sans" /></g><path
     style="font-size:medium;font-style:normal;font-variant:normal;font-weight:normal;font-stretch:normal;text-indent:0;text-align:start;text-decoration:none;line-height:normal;letter-spacing:normal;word-spacing:normal;text-transform:none;direction:ltr;block-progression:tb;writing-mode:lr-tb;text-anchor:start;baseline-shift:baseline;color:#000000;fill:#ff7400;fill-opacity:1;stroke:none;stroke-width:4.57562447;marker:none;visibility:visible;display:inline;overflow:visible;enable-background:accumulate;font-family:Sans;-inkscape-font-specification:Sans"
     d="m 285.56656,64.164408 c -1.60912,0 -3.19109,0.11986 -4.73392,0.37025 -0.0145,1.17721 -0.0874,2.34329 -0.21158,3.49094 1.60907,-0.3112 3.25532,-0.47605 4.9455,-0.47605 15.37177,0 27.92759,13.4202 27.92759,30.17555 l 3.38516,0 c 0,-18.46618 -13.95917,-33.56069 -31.31275,-33.56069 z"
     id="path5039"
     inkscape:connector-curvature="0" /></svg>