<?xml version="1.0" encoding="UTF-8" standalone="no"?>
<!-- Generator: Adobe Illustrator 17.1.0, SVG Export Plug-In . SVG Version: 6.00 Build 0)  -->

<svg
   xmlns:dc="http://purl.org/dc/elements/1.1/"
   xmlns:cc="http://creativecommons.org/ns#"
   xmlns:rdf="http://www.w3.org/1999/02/22-rdf-syntax-ns#"
   xmlns:svg="http://www.w3.org/2000/svg"
   xmlns="http://www.w3.org/2000/svg"
   xmlns:sodipodi="http://sodipodi.sourceforge.net/DTD/sodipodi-0.dtd"
   xmlns:inkscape="http://www.inkscape.org/namespaces/inkscape"
   version="1.1"
   id="Capa_1"
   x="0px"
   y="0px"
   viewBox="0 0 338.13913 172.58264"
   xml:space="preserve"
   inkscape:version="0.48.4 r9939"
   width="100%"
   height="100%"
   sodipodi:docname="logo_colored.svg"
   inkscape:export-filename="/home/mahieke/work/meetat-starhack/meetat-assets/logos/logo_colored.png"
   inkscape:export-xdpi="37.43858"
   inkscape:export-ydpi="37.43858"><metadata
     id="metadata43"><rdf:RDF><cc:Work
         rdf:about=""><dc:format>image/svg+xml</dc:format><dc:type
           rdf:resource="http://purl.org/dc/dcmitype/StillImage" /><dc:title></dc:title></cc:Work></rdf:RDF></metadata><defs
     id="defs41" /><sodipodi:namedview
     pagecolor="#ffffff"
     bordercolor="#666666"
     borderopacity="1"
     objecttolerance="10"
     gridtolerance="10"
     guidetolerance="10"
     inkscape:pageopacity="0"
     inkscape:pageshadow="2"
     inkscape:window-width="1600"
     inkscape:window-height="793"
     id="namedview39"
     showgrid="false"
     showguides="true"
     inkscape:guide-bbox="true"
     fit-margin-top="4"
     fit-margin-left="6"
     fit-margin-right="6"
     fit-margin-bottom="4"
     units="mm"
     inkscape:zoom="1.5761337"
     inkscape:cx="118.24178"
     inkscape:cy="144.14016"
     inkscape:window-x="0"
     inkscape:window-y="30"
     inkscape:window-maximized="1"
     inkscape:current-layer="Capa_1" /><path
     style="font-size:67.7912674px;font-style:normal;font-variant:normal;font-weight:normal;font-stretch:normal;text-align:start;line-height:125%;letter-spacing:0px;word-spacing:0px;writing-mode:lr-tb;text-anchor:start;fill:#ff7400;fill-opacity:1;stroke:none;font-family:Raleway;-inkscape-font-specification:Raleway"
     d="m 285.09053,14.180374 c -2.3887,0.112964 -4.7132,0.630326 -6.95544,1.533887 -2.56261,0.994481 -4.83437,2.436696 -6.82323,4.310797 -1.95061,1.87415 -3.52183,4.13128 -4.70748,6.77033 -0.9681,2.19434 -1.51484,4.61567 -1.66614,7.27281 0.68541,0.48148 1.35947,0.98209 2.00994,1.50746 0,-2.83031 0.51302,-5.43038 1.50746,-7.80175 1.03266,-2.37132 2.40452,-4.41445 4.12566,-6.1356 1.72112,-1.7211 3.73495,-3.06367 6.02982,-4.019869 2.33308,-0.994415 4.81883,-1.507446 7.45794,-1.507468 2.67729,2.2e-5 5.16306,0.527709 7.45793,1.560332 2.29481,1.032725 4.26757,2.433865 5.95048,4.231485 1.7211,1.7594 3.06365,3.85826 4.01988,6.26782 0.95615,2.40961 1.42807,4.99504 1.42811,7.74885 -4e-5,1.03269 -0.0997,2.21983 -0.29092,3.59675 -0.15302,1.33864 -0.44025,2.62263 -0.89918,3.80828 -0.459,1.18568 -1.101,2.19993 -1.90415,3.04136 -0.76498,0.80321 -1.72351,1.19011 -2.90912,1.19011 -1.30044,0 -2.1418,-0.54232 -2.48598,-1.61324 -0.30602,-1.07094 -0.44964,-2.44278 -0.44959,-4.12567 l 0,-7.40506 c -5e-5,-1.37688 -0.0997,-2.74873 -0.29091,-4.12566 -0.15303,-1.41513 -0.56638,-2.67266 -1.21654,-3.78184 -0.65024,-1.14742 -1.59412,-2.06197 -2.85624,-2.75046 -1.22394,-0.72668 -2.90946,-1.08428 -5.05129,-1.0843 -1.75941,2e-5 -3.43029,0.25795 -4.9984,0.79339 -1.52992,0.5355 -2.96036,1.25073 -4.33725,2.16864 l 1.03142,2.24795 c 1.10916,-0.84142 2.31097,-1.49806 3.64963,-1.95704 1.37689,-0.4972 2.83377,-0.74049 4.36368,-0.74053 1.41513,4e-5 2.59944,0.22869 3.5174,0.68763 0.9179,0.45898 1.63312,1.10096 2.16863,1.90414 0.53542,0.80322 0.89303,1.76172 1.0843,2.90913 0.22945,1.10918 0.34377,2.35207 0.34381,3.72895 -0.65025,-0.22945 -1.5941,-0.48737 -2.85623,-0.79337 -1.2622,-0.34423 -2.73373,-0.52894 -4.41659,-0.52895 -1.26218,10e-6 -2.5197,0.15544 -3.78185,0.42317 -1.26218,0.22948 -2.43184,0.63102 -3.4645,1.24297 -0.99446,0.57372 -1.80934,1.35933 -2.45954,2.35375 -0.61196,0.99444 -0.92563,2.22268 -0.92562,3.67606 -1e-5,2.25662 0.7563,4.12684 2.24795,5.58023 1.52987,1.41516 3.65804,2.11574 6.37364,2.11574 2.02708,0 3.87085,-0.41336 5.55377,-1.21654 1.68285,-0.80321 3.0547,-1.74705 4.12566,-2.85624 0.0766,0.68845 0.1908,1.35974 0.34382,2.00994 0.15295,0.61196 0.42268,1.16892 0.76694,1.66614 0.34419,0.49721 0.80148,0.86947 1.37522,1.1372 0.61192,0.30598 1.39753,0.44958 2.35375,0.44958 1.30037,0 2.41427,-0.25794 3.33226,-0.7934 0.9179,-0.49721 1.6624,-1.16849 2.2744,-2.00992 0.61192,-0.84143 1.11029,-1.77067 1.45456,-2.80334 0.38244,-1.03269 0.65502,-2.04693 0.8463,-3.04137 0.1912,-0.99442 0.30546,-1.95008 0.3438,-2.82978 0.0765,-0.91793 0.10582,-1.63314 0.10582,-2.16862 -5e-5,-3.25101 -0.55701,-6.2087 -1.66615,-8.88604 -1.10921,-2.67729 -2.61003,-4.99015 -4.52236,-6.90256 -1.9124,-1.95059 -4.14023,-3.436769 -6.66453,-4.46948 -2.52436,-1.070901 -5.18304,-1.586759 -8.0133,-1.586784 -0.34424,0 -0.69019,-0.01617 -1.03142,0 z m 0.89918,21.157244 c 1.83585,4e-5 3.39242,0.19938 4.65461,0.58184 1.30036,0.38247 2.2003,0.6111 2.69755,0.68762 l 0,2.30085 c -5e-5,1.07093 -0.22868,2.11446 -0.68763,3.14713 -0.42073,1.0327 -1.43497,1.93261 -3.04133,2.69754 -0.72675,0.34424 -1.55628,0.63148 -2.51244,0.8992 -0.91795,0.22948 -1.87362,0.37024 -2.82979,0.37024 -1.79765,0 -3.26916,-0.49837 -4.41657,-1.45454 -1.14744,-0.99443 -1.71905,-2.28126 -1.71902,-3.88766 -3e-5,-1.03267 0.21398,-1.88866 0.6347,-2.53887 0.45895,-0.68844 1.04521,-1.24541 1.77193,-1.66613 0.72668,-0.42071 1.56801,-0.69329 2.48598,-0.84629 0.95616,-0.19123 1.92932,-0.29089 2.96201,-0.29093 z m 8.5687,17.66631 c -1.41519,0.68846 -2.84278,1.23077 -4.25791,1.61325 -1.41518,0.38246 -2.93064,0.58183 -4.57526,0.58184 -2.26338,-1e-5 -4.41004,-0.37275 -6.40006,-1.11076 0.21808,0.74164 0.40935,1.48789 0.58181,2.24795 1.85353,0.53372 3.79318,0.79341 5.81825,0.79341 1.60636,0 3.20688,-0.17292 4.81329,-0.55538 1.60635,-0.38248 3.19219,-0.9541 4.76037,-1.71902 l -0.74049,-1.85129 z"
     id="path5057"
     inkscape:connector-curvature="0" /><g
     id="g9"
     transform="translate(14.728286,-73.537445)" /><g
     id="g11"
     transform="translate(14.728286,-73.537445)" /><g
     id="g13"
     transform="translate(14.728286,-73.537445)" /><g
     id="g15"
     transform="translate(14.728286,-73.537445)" /><g
     id="g17"
     transform="translate(14.728286,-73.537445)" /><g
     id="g19"
     transform="translate(14.728286,-73.537445)" /><g
     id="g21"
     transform="translate(14.728286,-73.537445)" /><g
     id="g23"
     transform="translate(14.728286,-73.537445)" /><g
     id="g25"
     transform="translate(14.728286,-73.537445)" /><g
     id="g27"
     transform="translate(14.728286,-73.537445)" /><g
     id="g29"
     transform="translate(14.728286,-73.537445)" /><g
     id="g31"
     transform="translate(14.728286,-73.537445)" /><g
     id="g33"
     transform="translate(14.728286,-73.537445)" /><g
     id="g35"
     transform="translate(14.728286,-73.537445)" /><g
     id="g37"
     transform="translate(14.728286,-73.537445)" /><text
     xml:space="preserve"
     style="font-size:12px;font-style:normal;font-variant:normal;font-weight:normal;font-stretch:normal;text-align:start;line-height:125%;letter-spacing:0px;word-spacing:0px;writing-mode:lr-tb;text-anchor:start;fill:#000000;fill-opacity:1;stroke:none;font-family:Abyssinica SIL;-inkscape-font-specification:Abyssinica SIL"
     x="-120.10246"
     y="181.67668"
     id="text4363"
     sodipodi:linespacing="125%"><tspan
       sodipodi:role="line"
       id="tspan4365"
       x="-120.10246"
       y="181.67668"
       style="font-style:normal;font-variant:normal;font-weight:normal;font-stretch:normal;font-family:Abyssinica SIL;-inkscape-font-specification:Abyssinica SIL" /></text>
<text
     xml:space="preserve"
     style="font-size:12px;font-style:italic;font-variant:normal;font-weight:bold;font-stretch:normal;text-align:start;line-height:125%;letter-spacing:0px;word-spacing:0px;writing-mode:lr-tb;text-anchor:start;fill:#000000;fill-opacity:1;stroke:none;font-family:WenQuanYi Micro Hei Mono;-inkscape-font-specification:WenQuanYi Micro Hei Mono Bold Italic"
     x="-129.54012"
     y="180.56636"
     id="text4371"
     sodipodi:linespacing="125%"><tspan
       sodipodi:role="line"
       id="tspan4373"
       x="-129.54012"
       y="180.56636" /></text>
<text
     xml:space="preserve"
     style="font-size:72.29414368px;font-style:normal;font-variant:normal;font-weight:normal;font-stretch:normal;text-align:start;line-height:125%;letter-spacing:0px;word-spacing:0px;writing-mode:lr-tb;text-anchor:start;fill:#000000;fill-opacity:1;stroke:none;font-family:Raleway;-inkscape-font-specification:Raleway"
     x="14.75337"
     y="89.178619"
     id="text4433"
     sodipodi:linespacing="125%"><tspan
       sodipodi:role="line"
       id="tspan4435"
       x="14.75337"
       y="89.178619"
       style="font-size:72.29414368px;font-style:normal;font-variant:normal;font-weight:normal;font-stretch:normal;text-align:start;line-height:125%;writing-mode:lr-tb;text-anchor:start;font-family:Raleway;-inkscape-font-specification:Raleway">Meet</tspan></text>
<text
     xml:space="preserve"
     style="font-size:86.86539459px;font-style:normal;font-variant:normal;font-stretch:normal;text-align:start;line-height:125%;letter-spacing:0px;word-spacing:0px;writing-mode:lr-tb;text-anchor:start;fill:#000000;fill-opacity:1;stroke:none;font-family:Roboto;-inkscape-font-specification:Roboto Semi-Light"
     x="208.03891"
     y="84.264297"
     id="text4437"
     sodipodi:linespacing="125%"><tspan
       sodipodi:role="line"
       id="tspan4439"
       x="208.03891"
       y="84.264297"
       style="font-size:86.86539459px;font-style:normal;font-variant:normal;font-weight:normal;font-stretch:normal;text-align:start;line-height:125%;writing-mode:lr-tb;text-anchor:start;fill:#ff7400;fill-opacity:1;font-family:Raleway;-inkscape-font-specification:Raleway">@</tspan></text>
<text
     sodipodi:linespacing="125%"
     id="text4957"
     y="84.264297"
     x="208.03891"
     style="font-size:86.86539459px;font-style:normal;font-variant:normal;font-stretch:normal;text-align:start;line-height:125%;letter-spacing:0px;word-spacing:0px;writing-mode:lr-tb;text-anchor:start;fill:#000000;fill-opacity:1;stroke:none;font-family:Roboto;-inkscape-font-specification:Roboto Semi-Light"
     xml:space="preserve"><tspan
       style="font-size:86.86539459px;font-style:normal;font-variant:normal;font-weight:normal;font-stretch:normal;text-align:start;line-height:125%;writing-mode:lr-tb;text-anchor:start;fill:#ff7400;fill-opacity:1;font-family:Raleway;-inkscape-font-specification:Raleway"
       y="84.264297"
       x="208.03891"
       id="tspan4959"
       sodipodi:role="line">@</tspan></text>
<g
     id="g4961"
     transform="matrix(1.1274566,0,0,1.1274566,188.34141,-1005.7247)"><path
       inkscape:connector-curvature="0"
       id="path4963"
       d="M 49.09375,987.4375 C 25.789168,987.4375 7,1007.7324 7,1032.5312 l 4.59375,0 c 0,-22.5013 16.856866,-40.5312 37.5,-40.5312 20.643235,0 37.5,18.0299 37.5,40.5312 l 4.5625,0 c 0,-24.7988 -18.757829,-45.0937 -42.0625,-45.0937 z"
       style="font-size:medium;font-style:normal;font-variant:normal;font-weight:normal;font-stretch:normal;text-indent:0;text-align:start;text-decoration:none;line-height:normal;letter-spacing:normal;word-spacing:normal;text-transform:none;direction:ltr;block-progression:tb;writing-mode:lr-tb;text-anchor:start;baseline-shift:baseline;color:#000000;fill:#ff7400;fill-opacity:1;stroke:none;stroke-width:4.57562447;marker:none;visibility:visible;display:inline;overflow:visible;enable-background:accumulate;font-family:Sans;-inkscape-font-specification:Sans" /></g><path
     style="font-size:medium;font-style:normal;font-variant:normal;font-weight:normal;font-stretch:normal;text-indent:0;text-align:start;text-decoration:none;line-height:normal;letter-spacing:normal;word-spacing:normal;text-transform:none;direction:ltr;block-progression:tb;writing-mode:lr-tb;text-anchor:start;baseline-shift:baseline;color:#000000;fill:#ff7400;fill-opacity:1;stroke:none;stroke-width:4.57562447;marker:none;visibility:visible;display:inline;overflow:visible;enable-background:accumulate;font-family:Sans;-inkscape-font-specification:Sans"
     d="m 285.56656,64.164408 c -1.60912,0 -3.19109,0.11986 -4.73392,0.37025 -0.0145,1.17721 -0.0874,2.34329 -0.21158,3.49094 1.60907,-0.3112 3.25532,-0.47605 4.9455,-0.47605 15.37177,0 27.92759,13.4202 27.92759,30.17555 l 3.38516,0 c 0,-18.46618 -13.95917,-33.56069 -31.31275,-33.56069 z"
     id="path5039"
     inkscape:connector-curvature="0" /></svg>