<?xml version="1.0" encoding="UTF-8" standalone="no"?>
<!-- Generator: Adobe Illustrator 17.1.0, SVG Export Plug-In . SVG Version: 6.00 Build 0)  -->

<svg
   xmlns:dc="http://purl.org/dc/elements/1.1/"
   xmlns:cc="http://creativecommons.org/ns#"
   xmlns:rdf="http://www.w3.org/1999/02/22-rdf-syntax-ns#"
   xmlns:svg="http://www.w3.org/2000/svg"
   xmlns="http://www.w3.org/2000/svg"
   xmlns:sodipodi="http://sodipodi.sourceforge.net/DTD/sodipodi-0.dtd"
   xmlns:inkscape="http://www.inkscape.org/namespaces/inkscape"
   version="1.1"
   id="Capa_1"
   x="0px"
   y="0px"
   viewBox="0 0 315.48433 316.72806"
   xml:space="preserve"
   inkscape:version="0.48.4 r9939"
   width="100%"
   height="100%"
   sodipodi:docname="ic_launcher.svg"><metadata
     id="metadata43"><rdf:RDF><cc:Work
         rdf:about=""><dc:format>image/svg+xml</dc:format><dc:type
           rdf:resource="http://purl.org/dc/dcmitype/StillImage" /><dc:title></dc:title></cc:Work></rdf:RDF></metadata><defs
     id="defs41" /><sodipodi:namedview
     pagecolor="#ffffff"
     bordercolor="#666666"
     borderopacity="1"
     objecttolerance="10"
     gridtolerance="10"
     guidetolerance="10"
     inkscape:pageopacity="0"
     inkscape:pageshadow="2"
     inkscape:window-width="1600"
     inkscape:window-height="793"
     id="namedview39"
     showgrid="false"
     showguides="true"
     inkscape:guide-bbox="true"
     fit-margin-top="1"
     fit-margin-left="1"
     fit-margin-right="1"
     fit-margin-bottom="1"
     units="mm"
     inkscape:zoom="1.1144948"
     inkscape:cx="23.857849"
     inkscape:cy="127.86291"
     inkscape:window-x="0"
     inkscape:window-y="30"
     inkscape:window-maximized="1"
     inkscape:current-layer="Capa_1" /><path
     style="font-size:67.7912674px;font-style:normal;font-variant:normal;font-weight:normal;font-stretch:normal;text-align:start;line-height:125%;letter-spacing:0px;word-spacing:0px;writing-mode:lr-tb;text-anchor:start;fill:#ff7400;fill-opacity:1;stroke:none;font-family:Raleway;-inkscape-font-specification:Raleway"
     d="m 278.30019,95.936786 c -2.3887,0.112964 -4.7132,0.630326 -6.95544,1.533887 -2.56261,0.994481 -4.83437,2.436696 -6.82323,4.310797 -1.95061,1.87415 -3.52183,4.13128 -4.70748,6.77033 -0.9681,2.19434 -1.51484,4.61567 -1.66614,7.27281 0.68541,0.48148 1.35947,0.98209 2.00994,1.50746 0,-2.83031 0.51302,-5.43038 1.50746,-7.80175 1.03266,-2.37132 2.40452,-4.41445 4.12566,-6.1356 1.72112,-1.7211 3.73495,-3.06367 6.02982,-4.019869 2.33308,-0.994415 4.81883,-1.507446 7.45794,-1.507468 2.67729,2.2e-5 5.16306,0.527709 7.45793,1.560332 2.29481,1.032725 4.26757,2.433865 5.95048,4.231485 1.7211,1.7594 3.06365,3.85826 4.01988,6.26782 0.95615,2.40961 1.42807,4.99504 1.42811,7.74885 -4e-5,1.03269 -0.0997,2.21983 -0.29092,3.59675 -0.15302,1.33864 -0.44025,2.62263 -0.89918,3.80828 -0.459,1.18568 -1.101,2.19993 -1.90415,3.04136 -0.76498,0.80321 -1.72351,1.19011 -2.90912,1.19011 -1.30044,0 -2.1418,-0.54232 -2.48598,-1.61324 -0.30602,-1.07094 -0.44964,-2.44278 -0.44959,-4.12567 l 0,-7.40506 c -5e-5,-1.37688 -0.0997,-2.74873 -0.29091,-4.12566 -0.15303,-1.41513 -0.56638,-2.67266 -1.21654,-3.78184 -0.65024,-1.14742 -1.59412,-2.06197 -2.85624,-2.75046 -1.22394,-0.72668 -2.90946,-1.08428 -5.05129,-1.0843 -1.75941,2e-5 -3.43029,0.25795 -4.9984,0.79339 -1.52992,0.5355 -2.96036,1.25073 -4.33725,2.16864 l 1.03142,2.24795 c 1.10916,-0.84142 2.31097,-1.49806 3.64963,-1.95704 1.37689,-0.4972 2.83377,-0.74049 4.36368,-0.74053 1.41513,4e-5 2.59944,0.22869 3.5174,0.68763 0.9179,0.45898 1.63312,1.10096 2.16863,1.90414 0.53542,0.80322 0.89303,1.76172 1.0843,2.90913 0.22945,1.10918 0.34377,2.35207 0.34381,3.72895 -0.65025,-0.22945 -1.5941,-0.48737 -2.85623,-0.79337 -1.2622,-0.34423 -2.73373,-0.52894 -4.41659,-0.52895 -1.26218,1e-5 -2.5197,0.15544 -3.78185,0.42317 -1.26218,0.22948 -2.43184,0.63102 -3.4645,1.24297 -0.99446,0.57372 -1.80934,1.35933 -2.45954,2.35375 -0.61196,0.99444 -0.92563,2.22268 -0.92562,3.67606 -10e-6,2.25662 0.7563,4.12684 2.24795,5.58023 1.52987,1.41516 3.65804,2.11574 6.37364,2.11574 2.02708,0 3.87085,-0.41336 5.55377,-1.21654 1.68285,-0.80321 3.0547,-1.74705 4.12566,-2.85624 0.0766,0.68845 0.1908,1.35974 0.34382,2.00994 0.15295,0.61196 0.42268,1.16892 0.76694,1.66614 0.34419,0.49721 0.80148,0.86947 1.37522,1.1372 0.61192,0.30598 1.39753,0.44958 2.35375,0.44958 1.30037,0 2.41427,-0.25794 3.33226,-0.7934 0.9179,-0.49721 1.6624,-1.16849 2.2744,-2.00992 0.61192,-0.84143 1.11029,-1.77067 1.45456,-2.80334 0.38244,-1.03269 0.65502,-2.04693 0.8463,-3.04137 0.1912,-0.99442 0.30546,-1.95008 0.3438,-2.82978 0.0765,-0.91793 0.10582,-1.63314 0.10582,-2.16862 -5e-5,-3.25101 -0.55701,-6.2087 -1.66615,-8.88604 -1.10921,-2.67729 -2.61003,-4.99015 -4.52236,-6.90256 -1.9124,-1.95059 -4.14023,-3.436769 -6.66453,-4.46948 -2.52436,-1.070901 -5.18304,-1.586759 -8.0133,-1.586784 -0.34424,0 -0.69019,-0.01617 -1.03142,0 z m 0.89918,21.157244 c 1.83585,4e-5 3.39242,0.19938 4.65461,0.58184 1.30036,0.38247 2.2003,0.6111 2.69755,0.68762 l 0,2.30085 c -5e-5,1.07093 -0.22868,2.11446 -0.68763,3.14713 -0.42073,1.0327 -1.43497,1.93261 -3.04133,2.69754 -0.72675,0.34424 -1.55628,0.63148 -2.51244,0.8992 -0.91795,0.22948 -1.87362,0.37024 -2.82979,0.37024 -1.79765,0 -3.26916,-0.49837 -4.41657,-1.45454 -1.14744,-0.99443 -1.71905,-2.28126 -1.71902,-3.88766 -3e-5,-1.03267 0.21398,-1.88866 0.6347,-2.53887 0.45895,-0.68844 1.04521,-1.24541 1.77193,-1.66613 0.72668,-0.42071 1.56801,-0.69329 2.48598,-0.84629 0.95616,-0.19123 1.92932,-0.29089 2.96201,-0.29093 z m 8.5687,17.66631 c -1.41519,0.68846 -2.84278,1.23077 -4.25791,1.61325 -1.41518,0.38246 -2.93064,0.58183 -4.57526,0.58184 -2.26338,-1e-5 -4.41004,-0.37275 -6.40006,-1.11076 0.21808,0.74164 0.40935,1.48789 0.58181,2.24795 1.85353,0.53372 3.79318,0.79341 5.81825,0.79341 1.60636,0 3.20688,-0.17292 4.81329,-0.55538 1.60635,-0.38248 3.19219,-0.9541 4.76037,-1.71902 l -0.74049,-1.85129 z"
     id="path5057"
     inkscape:connector-curvature="0" /><g
     id="g9"
     transform="translate(7.9379506,8.2189668)" /><g
     id="g11"
     transform="translate(7.9379506,8.2189668)" /><g
     id="g13"
     transform="translate(7.9379506,8.2189668)" /><g
     id="g15"
     transform="translate(7.9379506,8.2189668)" /><g
     id="g17"
     transform="translate(7.9379506,8.2189668)" /><g
     id="g19"
     transform="translate(7.9379506,8.2189668)" /><g
     id="g21"
     transform="translate(7.9379506,8.2189668)" /><g
     id="g23"
     transform="translate(7.9379506,8.2189668)" /><g
     id="g25"
     transform="translate(7.9379506,8.2189668)" /><g
     id="g27"
     transform="translate(7.9379506,8.2189668)" /><g
     id="g29"
     transform="translate(7.9379506,8.2189668)" /><g
     id="g31"
     transform="translate(7.9379506,8.2189668)" /><g
     id="g33"
     transform="translate(7.9379506,8.2189668)" /><g
     id="g35"
     transform="translate(7.9379506,8.2189668)" /><g
     id="g37"
     transform="translate(7.9379506,8.2189668)" /><text
     xml:space="preserve"
     style="font-size:12px;font-style:normal;font-variant:normal;font-weight:normal;font-stretch:normal;text-align:start;line-height:125%;letter-spacing:0px;word-spacing:0px;writing-mode:lr-tb;text-anchor:start;fill:#000000;fill-opacity:1;stroke:none;font-family:Abyssinica SIL;-inkscape-font-specification:Abyssinica SIL"
     x="-126.8928"
     y="263.43311"
     id="text4363"
     sodipodi:linespacing="125%"><tspan
       sodipodi:role="line"
       id="tspan4365"
       x="-126.8928"
       y="263.43311"
       style="font-style:normal;font-variant:normal;font-weight:normal;font-stretch:normal;font-family:Abyssinica SIL;-inkscape-font-specification:Abyssinica SIL" /></text>
<text
     xml:space="preserve"
     style="font-size:12px;font-style:italic;font-variant:normal;font-weight:bold;font-stretch:normal;text-align:start;line-height:125%;letter-spacing:0px;word-spacing:0px;writing-mode:lr-tb;text-anchor:start;fill:#000000;fill-opacity:1;stroke:none;font-family:WenQuanYi Micro Hei Mono;-inkscape-font-specification:WenQuanYi Micro Hei Mono Bold Italic"
     x="-136.33044"
     y="262.32278"
     id="text4371"
     sodipodi:linespacing="125%"><tspan
       sodipodi:role="line"
       id="tspan4373"
       x="-136.33044"
       y="262.32278" /></text>
<path
     sodipodi:nodetypes="ccccccccccccccccccccccsc"
     inkscape:connector-curvature="0"
     id="path4419"
     d="m -17.923744,1222.3423 c 15.8276902,10.7847 35.76837,17.1165 54.93751,13.6875 9.01771,-3.4568 9.37486,-18.0128 0.78125,-22.2813 -6.91465,-6.2085 -14.29633,-14.1022 -17.4375,-22.4687 43.80164,-23.6397 74.94082,-71.0509 74.59375,-121.4688 0.34296,-48.2562 -27.89279,-94.17663 -68.84375,-118.65622 -26.09328978,-16.00322 -56.85612,-24.28855 -87.59376,-23.8125 -59.816806,-0.0398 -119.500586,36.15389 -142.232436,92.10882 -19.02731,45.5066 -9.52822,101.1666 23.2012,137.9849 29.06777,33.8373 73.51144,54.3024 118.281246,53.6875 2.45633,-0.5928 4.37465,-1.9922 5.74082,-3.8292 4.54907,-6.1171 2.97614,-17.0875 -5.24082,-19.2958 -18.62808,-1.7053 -37.52347,-4.2782 -54.728646,-12.2445 -37.30469,-16.088 -67.67648,-50.785 -73.03777,-91.6517 -6.10717,-41.4579 14.94974,-83.916 49.07892,-107.26002 51.138246,-36.73295 127.566076,-33.16797 174.121506,9.50912 28.56864,25.4337 44.21233,65.8939 36.12849,103.8971 -7.25433,37.3317 -35.07885,68.8187 -69.34374978,84.2188 -6.53533002,3.2036 -7.60415002,11.2859 -5.12500002,17.5312 1.44884,5.0894 3.77370002,9.8206 6.34375,14.4375 -10.11123,-4.8026 -17.3094902,-13.7835 -25.4687502,-21 -9.37711,-4.896 -20.56881,7.1218 -15.125,16.1875 0.77073,1.4286 1.64449,2.7783 2.60009,4.0632 4.91641,6.6109 11.99942,11.5107 18.36866,16.6556 z"
     style="fill:#ffa61c;fill-opacity:1" /><path
     sodipodi:nodetypes="cccsssccccsssssscssscssssssscscccccscccssssss"
     inkscape:connector-curvature="0"
     id="path4421"
     d="m -13.642494,1200.7173 c 12.93765022,11.5251 25.5625,14.0312 25.5625,14.0312 C 3.4114662,1203.0751 0.85750622,1195.5923 0.85750622,1195.5923 53.236686,1174.1941 89.795016,1125.8813 89.795016,1069.686 c 0,-76.03781 -66.91719,-137.68747 -149.4375,-137.68747 -82.520336,0 -149.406246,61.64966 -149.406246,137.68747 0,76.0379 64.20927,141.4746 146.729606,141.4746 4.50393,0 14.86488,-0.038 27.02541,-0.038 5.10077,0 5.25672,1.6498 6.77508,2.5403 7.66685,5.6802 9.0369,-11.1062 14.87615,-12.946 z m -46.9375,-193.125 c 1.84644,-0.027 3.69903,0.026 5.5625,0.1562 33.991,2.3757 60.6250002,31.7963 60.6250002,67 l 0,0.5 c 0,15.1778 -12.22925,27.5313 -27.2812502,27.5313 l -1.96875,0 c -8.067,0 -15.34175,-3.5599 -20.34375,-9.1875 -5.317,5.6458 -12.812,9.1875 -21.125,9.1875 -16.082,0 -29.15625,-13.1899 -29.15625,-29.4063 0,-16.2153 13.07425,-29.4062 29.15625,-29.4062 5.467,0 10.59075,1.5063 14.96875,4.1562 1.232,-2.4755 3.7535,-4.1562 6.6875,-4.1562 4.142,0 7.5,3.3849 7.5,7.5625 l 0,23.7187 c 0,6.8377 5.5315,12.4063 12.3125,12.4063 l 1.96875,0 c 6.781,0 12.2812502,-5.5686 12.2812502,-12.4063 l 0,-0.5 c 0,-27.2891 -20.4962502,-50.1093 -46.6562502,-51.9375 -15.316,-1.0759 -30.07375,4.8093 -40.46875,16.125 -10.392996,11.3138 -15.062496,26.6891 -12.812496,42.1563 3.20501,22.0376 21.501996,39.9276 43.499996,42.5625 11.766,1.4087 23.18525,-1.1494 33.03125,-7.4375 3.498,-2.2356 8.12775,-1.1845 10.34375,2.3437 2.216,3.5293 1.1875,8.202 -2.3125,10.4375 -10.524,6.7217 -22.41425,10.1563 -34.78125,10.1563 -2.664,0 -5.33125,-0.1451 -8.03125,-0.4688 -29.067,-3.4808 -52.355736,-26.2668 -56.593736,-55.4062 -2.912,-20.0189 3.16324,-39.9373 16.65624,-54.625 12.229836,-13.3135 29.088596,-20.8023 46.937496,-21.0625 z m -4.53125,51.5 c -7.811,0 -14.15625,6.405 -14.15625,14.2812 0,7.8763 6.34525,14.2813 14.15625,14.2813 7.811,0 14.15625,-6.406 14.15625,-14.2813 0,-7.8752 -6.34525,-14.2812 -14.15625,-14.2812 z"
     style="fill:#ffa61c;fill-opacity:1;fill-rule:nonzero;stroke:none" /><path
     style="fill:#ffffff"
     d="m 90.866886,1069.4884 c 0,-76.18002 -67.37125,-138.15708 -150.18163,-138.15708 -82.810366,0 -150.182626,61.97814 -150.182626,138.15708 0,36.1455 15.04896,70.3183 42.37459,96.2201 26.90838,25.5075 62.96308,40.3587 101.525266,41.8182 4.12432,0.1275 7.63581,-3.3393 7.78225,-7.8118 0.14544,-4.4725 -3.10227,-8.2245 -7.25367,-8.3822 -35.095836,-1.3277 -67.808546,-14.7475 -92.113156,-37.7886 -24.03479,-22.7819 -37.27033,-52.6334 -37.27033,-84.0557 0,-67.2447 60.62209,-121.95115 135.136676,-121.95115 74.51459,0 135.13669,54.70755 135.13669,121.95225 0,45.7766 -28.06985,87.3063 -73.2548298,108.3824 -3.41720998,1.5945 -5.23765,5.6414 -4.28079,9.5176 2.66596002,10.8032 8.04904,20.0476 13.5344298,27.2403 -15.9055098,-4.3655 -27.35271,-14.4882 -34.82102,-23.524 -2.76225,-3.3414 -7.51846,-3.6385 -10.62073,-0.6633 -3.10327,2.9752 -3.37909,8.097 -0.61584,11.4395 9.8083,11.8663 30.6826602,31.149 62.70131,31.149 1.49346,0 3.012,-0.041 4.5536,-0.1275 3.21561,-0.1815 5.96783,-2.5463 6.84545,-5.8834 0.87762,-3.3371 -0.31394,-6.9065 -2.96385,-8.876 -0.16851,-0.1253 -15.17835,-11.4417 -22.00975,-28.5324 47.04654,-24.5633 75.97796,-69.9995 75.97796,-120.1233 z"
     id="path4423"
     inkscape:connector-curvature="0" /><text
     xml:space="preserve"
     style="font-size:72.29414368px;font-style:normal;font-variant:normal;font-weight:normal;font-stretch:normal;text-align:start;line-height:125%;letter-spacing:0px;word-spacing:0px;writing-mode:lr-tb;text-anchor:start;fill:#000000;fill-opacity:1;stroke:none;font-family:Raleway;-inkscape-font-specification:Raleway"
     x="7.963027"
     y="170.93503"
     id="text4433"
     sodipodi:linespacing="125%"><tspan
       sodipodi:role="line"
       id="tspan4435"
       x="7.963027"
       y="170.93503"
       style="font-size:72.29414368px;font-style:normal;font-variant:normal;font-weight:normal;font-stretch:normal;text-align:start;line-height:125%;writing-mode:lr-tb;text-anchor:start;font-family:Raleway;-inkscape-font-specification:Raleway">Meet</tspan></text>
<text
     xml:space="preserve"
     style="font-size:86.86539459px;font-style:normal;font-variant:normal;font-stretch:normal;text-align:start;line-height:125%;letter-spacing:0px;word-spacing:0px;writing-mode:lr-tb;text-anchor:start;fill:#000000;fill-opacity:1;stroke:none;font-family:Roboto;-inkscape-font-specification:Roboto Semi-Light"
     x="201.24857"
     y="166.02071"
     id="text4437"
     sodipodi:linespacing="125%"><tspan
       sodipodi:role="line"
       id="tspan4439"
       x="201.24857"
       y="166.02071"
       style="font-size:86.86539459px;font-style:normal;font-variant:normal;font-weight:normal;font-stretch:normal;text-align:start;line-height:125%;writing-mode:lr-tb;text-anchor:start;fill:#ff7400;fill-opacity:1;font-family:Raleway;-inkscape-font-specification:Raleway">@</tspan></text>
<text
     sodipodi:linespacing="125%"
     id="text4957"
     y="166.02071"
     x="201.24857"
     style="font-size:86.86539459px;font-style:normal;font-variant:normal;font-stretch:normal;text-align:start;line-height:125%;letter-spacing:0px;word-spacing:0px;writing-mode:lr-tb;text-anchor:start;fill:#000000;fill-opacity:1;stroke:none;font-family:Roboto;-inkscape-font-specification:Roboto Semi-Light"
     xml:space="preserve"><tspan
       style="font-size:86.86539459px;font-style:normal;font-variant:normal;font-weight:normal;font-stretch:normal;text-align:start;line-height:125%;writing-mode:lr-tb;text-anchor:start;fill:#ff7400;fill-opacity:1;font-family:Raleway;-inkscape-font-specification:Raleway"
       y="166.02071"
       x="201.24857"
       id="tspan4959"
       sodipodi:role="line">@</tspan></text>
<g
     id="g4961"
     transform="matrix(1.1274566,0,0,1.1274566,181.55107,-923.96834)"><path
       inkscape:connector-curvature="0"
       id="path4963"
       d="M 49.09375,987.4375 C 25.789168,987.4375 7,1007.7324 7,1032.5312 l 4.59375,0 c 0,-22.5013 16.856866,-40.5312 37.5,-40.5312 20.643235,0 37.5,18.0299 37.5,40.5312 l 4.5625,0 c 0,-24.7988 -18.757829,-45.0937 -42.0625,-45.0937 z"
       style="font-size:medium;font-style:normal;font-variant:normal;font-weight:normal;font-stretch:normal;text-indent:0;text-align:start;text-decoration:none;line-height:normal;letter-spacing:normal;word-spacing:normal;text-transform:none;direction:ltr;block-progression:tb;writing-mode:lr-tb;text-anchor:start;baseline-shift:baseline;color:#000000;fill:#ff7400;fill-opacity:1;stroke:none;stroke-width:4.57562447;marker:none;visibility:visible;display:inline;overflow:visible;enable-background:accumulate;font-family:Sans;-inkscape-font-specification:Sans" /></g><path
     style="font-size:medium;font-style:normal;font-variant:normal;font-weight:normal;font-stretch:normal;text-indent:0;text-align:start;text-decoration:none;line-height:normal;letter-spacing:normal;word-spacing:normal;text-transform:none;direction:ltr;block-progression:tb;writing-mode:lr-tb;text-anchor:start;baseline-shift:baseline;color:#000000;fill:#ff7400;fill-opacity:1;stroke:none;stroke-width:4.57562447;marker:none;visibility:visible;display:inline;overflow:visible;enable-background:accumulate;font-family:Sans;-inkscape-font-specification:Sans"
     d="m 278.77622,145.92082 c -1.60912,0 -3.19109,0.11986 -4.73392,0.37025 -0.0145,1.17721 -0.0874,2.34329 -0.21158,3.49094 1.60907,-0.3112 3.25532,-0.47605 4.9455,-0.47605 15.37177,0 27.92759,13.4202 27.92759,30.17555 l 3.38516,0 c 0,-18.46618 -13.95917,-33.56069 -31.31275,-33.56069 z"
     id="path5039"
     inkscape:connector-curvature="0" /></svg>